<?xml version="1.0" encoding="UTF-8"?>
<svg width="234px" height="152px" viewBox="0 0 234 152" version="1.1" xmlns="http://www.w3.org/2000/svg" xmlns:xlink="http://www.w3.org/1999/xlink">
    <!-- Generator: Sketch 48.2 (47327) - http://www.bohemiancoding.com/sketch -->
    <title>Page 1 Copy 3</title>
    <desc>Created with Sketch.</desc>
    <defs>
        <polygon id="path-1" points="0 0 234 0 234 152 0 152"></polygon>
    </defs>
    <g id="Desktop-Copy" stroke="none" stroke-width="1" fill="none" fill-rule="evenodd" transform="translate(-721.000000, -3715.000000)">
        <g id="Page-1-Copy-3" transform="translate(721.000000, 3715.000000)">
            <mask id="mask-2" fill="white">
                <use xlink:href="#path-1"></use>
            </mask>
            <g id="Clip-2"></g>
            <path d="M233.794939,123.829554 C233.33267,124.253776 232.80833,124.615292 232.310669,125.004072 L232.449513,125.152386 C231.574523,125.564067 230.766505,126.053177 229.803853,126.363983 C228.944654,126.641527 228.087632,126.899441 227.832268,127.805685 C227.766385,128.040153 227.528989,128.127396 227.375444,128.287162 C227.096666,128.577247 226.805911,128.856427 226.552724,129.171595 C226.437293,129.315547 226.495009,129.646527 226.310428,129.7016 C225.39678,129.970965 224.719439,130.471526 224.480409,131.41812 C223.575472,131.438295 223.440984,132.214764 223.113748,132.815655 C222.785423,133.416546 222.219701,133.796056 222.100459,134.595972 C222.069423,134.808083 221.962704,134.98148 221.779212,135.044186 C220.660836,135.424787 220.045022,136.308129 219.386738,137.159301 C218.682172,138.070998 217.756545,138.759678 216.544519,139.153365 C215.899302,139.362204 215.463168,139.82187 215.027035,140.264086 C214.508684,140.789729 214.113386,141.438604 213.626071,141.996964 C212.919328,142.80724 212.292624,143.685675 211.852679,144.752229 C211.706212,145.108293 211.553211,145.459449 211.394221,145.805697 L211.15138,146.320435 C211.10401,146.412041 211.082775,146.476383 211.012536,146.589255 L210.772417,146.955133 C210.118489,147.938806 209.354575,148.986821 208.518243,150.060463 C207.894262,150.86147 207.19133,151.463996 206.535224,152 L205.812146,151.146648 C204.930078,150.125896 204.094835,149.110598 203.306419,148.154734 L202.148841,146.76047 L201.393093,145.826963 C200.678183,144.975791 199.849474,144.233129 199.002253,143.514459 C198.210026,142.843228 197.295288,142.2985 196.487815,141.642537 L189.35232,135.769945 C188.778431,135.301555 188.140293,134.899689 187.552792,134.445476 C187.259858,134.218097 186.997416,133.958547 186.751308,133.684275 C185.83657,132.665705 184.961581,131.60842 184.021252,130.615478 C182.674193,129.195041 181.262884,127.838947 179.918547,126.414694 C179.155721,125.607144 178.4468,124.748339 177.356194,124.277223 C177.050192,124.145267 177.237495,123.816467 177.875089,123.341534 C178.97713,122.520898 180.091149,121.631012 181.040189,121.432533 C181.683772,121.29785 182.218458,121.237325 182.392149,121.696445 C182.643157,122.362769 183.574774,122.398212 183.444097,123.432049 C183.425584,123.578183 183.545371,123.643615 183.656447,123.68233 C185.662335,124.377008 186.66909,126.085894 187.947,127.521053 C188.364077,127.989442 188.912919,128.328057 189.386078,128.742465 C189.692624,129.011284 189.982835,129.296462 190.257801,129.596362 C190.656909,130.032581 190.980334,130.547319 191.442603,130.918104 C191.791619,131.19783 192.280568,131.319425 191.994168,132.175504 C191.93373,132.354899 192.129201,132.490672 192.323582,132.411608 C193.072251,132.108436 193.274256,132.42633 193.51873,132.701693 C194.180281,133.445445 194.792828,134.237727 195.50175,134.933496 C196.026635,135.447688 196.63047,135.884997 197.274598,136.276504 C198.274819,136.884483 199.378493,137.381772 200.362925,138.006655 C201.1851,138.529027 201.892388,139.174085 202.664469,139.749894 C202.843061,139.883485 203.109315,139.926017 203.278106,140.068333 C203.588463,140.330064 204.016974,140.504006 204.101369,140.957128 C204.19611,141.460415 204.38668,141.735778 205.128815,141.544387 C205.544803,141.437514 205.764775,141.710696 205.91941,141.956069 C205.969502,142.035133 206.011428,142.121286 206.047364,142.213438 L206.097457,142.355209 C206.116514,142.407555 206.129581,142.456084 206.105624,142.469716 C206.05172,142.564048 205.99346,142.684554 205.948267,142.815419 C205.827391,143.116955 205.830658,143.567351 206.121414,143.155124 C206.265703,142.922293 206.248824,143.131678 206.26897,143.406495 C206.293472,143.829082 206.404002,144.1846 206.535224,144.452329 C206.780243,144.457237 207.068276,144.058097 207.236522,143.686766 C207.234889,143.437031 207.680823,142.679646 208.229666,141.822477 C207.332352,141.146338 206.507999,140.274446 205.959157,138.617906 C205.409226,136.956459 204.988338,135.408429 205.190342,133.346751 C205.482731,130.357018 204.848949,127.203158 205.671124,124.258684 C205.787644,123.84264 205.74953,123.239023 205.697259,122.749367 C204.769999,113.942661 205.264392,105.090697 205.374379,96.2463663 C205.410315,93.3580544 205.26167,90.4631993 205.219744,87.56998 C205.19252,85.6953309 205.188709,83.8185008 205.206132,81.9438517 C205.231723,79.2191218 205.366211,76.4894844 205.301417,73.7729336 C205.251869,71.7210708 204.992694,69.7308238 205.799078,67.8768951 C205.968413,67.4886606 205.925943,66.4101104 205.732651,66.0322361 C204.989427,64.5774473 205.0711,62.8832837 205.092335,61.1858484 C205.15005,56.6060992 205.276371,52.0258048 205.266026,47.446601 C205.258403,44.0588189 205.139705,40.6623125 204.961113,37.2870717 C204.683425,32.0426346 204.253281,26.8216443 203.999006,21.5744808 C203.786656,17.1888489 203.741464,12.7797703 203.60262,8.3832329 C203.593908,8.12913562 203.578662,7.8755836 203.559061,7.62257686 L203.526936,7.24306676 L203.518769,7.15091559 L203.510057,7.1263783 L203.493178,7.07948481 C203.446896,6.95461726 203.402793,6.85265118 203.392992,6.74250601 C203.37938,6.57837879 203.341811,6.43715305 203.318942,6.30465167 C203.041254,6.33900388 202.865385,6.34118498 202.650857,6.18523686 C202.599675,6.14924883 202.543049,6.11653244 202.482611,6.08817824 C202.301841,6.06036931 202.039399,6.03692256 201.828683,6.01892855 C201.385471,5.98294052 200.956415,5.96930869 200.533349,5.98512161 C199.686128,6.01674745 198.857964,6.16669757 197.960106,6.49713309 C196.952262,6.86737356 195.349838,6.82974971 194.045793,6.76595275 C192.370408,6.68361651 190.708091,6.42788341 189.071365,6.17869358 C187.104679,5.88042917 185.267038,5.56362547 183.148985,6.06145985 C182.012642,6.32809842 180.437987,6.16833339 179.150276,5.98784798 C173.466382,5.19338501 167.714971,5.25990833 161.966283,5.48128923 C154.163792,5.78173473 146.374913,6.2026856 138.5746,6.52875894 C135.518397,6.65635285 132.448038,6.67707323 129.383668,6.72832891 C119.84971,6.88754867 110.325008,6.69070506 100.800851,6.46550725 C98.9327175,6.42134013 97.0297373,6.35154517 95.1910065,6.49658782 C90.9314888,6.83356662 86.6975619,6.75123038 82.446756,6.51894402 C77.3274942,6.2392189 72.2360011,6.51676293 67.147775,6.8117557 C65.9629725,6.88046011 64.7623798,7.03967987 63.5933673,6.98515256 C55.4162694,6.60182554 47.2593176,7.27414733 39.1029102,7.13074049 C32.5004672,7.01514258 25.9100029,6.62418174 19.3238945,6.2959273 C14.2351239,6.04183002 9.16050991,5.69394575 4.07827315,5.39350025 C3.74504743,5.37387042 3.39548711,5.43766738 3.06389485,5.41313008 C0.171038209,5.20101883 -0.745332529,4.23261373 0.62350647,2.75655933 C1.83553336,1.44899433 3.74994781,0.690519381 6.36402738,0.715601946 C9.25035018,0.743410876 12.1339506,0.859008783 15.0191844,0.935892296 L15.0513091,0.73359596 C19.241677,1.06185039 23.4668921,1.28813875 27.6131566,1.7499851 C31.3162091,2.1622116 34.9457559,2.5864341 38.727759,2.12676884 C39.7034787,2.0078993 40.760327,2.11422756 41.7796057,2.1093201 C43.6324931,2.10168628 45.4870141,2.11041065 47.3382681,2.0667888 C48.1822221,2.04661369 49.0713685,1.77179603 49.8510732,1.86394719 C53.704404,2.31979554 57.5392222,2.44629891 61.4012648,1.94573816 C64.4106415,2.572257 67.3748259,2.11858975 70.3989038,1.92556305 C73.4229817,1.73308163 76.5015082,1.86503773 79.4907389,1.38356155 C80.2840557,1.25596763 81.1949816,1.20907414 81.9975547,1.29468203 C86.8783314,1.81759897 91.7574747,1.62893446 96.6709207,1.49316145 C101.933927,1.34757352 107.190399,1.51606292 112.41747,2.09568827 C115.200884,2.40485815 118.118243,2.38904523 120.974619,2.38468304 C124.376026,2.38032086 127.7758,2.20147126 131.17884,2.15185141 C136.116243,2.07933008 141.017711,1.90211631 145.918633,1.45935451 C152.470984,0.86718788 159.068526,0.401524615 165.674781,0.0667269044 C169.034262,-0.103398317 172.457449,0.0939905616 175.846333,0.191594454 C182.632267,0.385711694 189.41058,0.696517386 196.199781,0.823566029 C197.919814,0.855737144 199.642025,0.870459519 201.365325,0.871550065 L208.774697,0.841560042 C208.799743,3.25221261 208.825334,5.66231991 208.85038,8.07024612 C208.936409,12.8402956 209.198307,17.6005301 209.305571,22.3700343 C209.605583,36.5067859 209.905595,50.646809 210.205607,64.7841058 C210.279657,68.1822481 210.447904,71.5743923 210.5421,74.971444 C210.588926,76.6677888 210.591648,78.3701315 210.572046,80.0686574 C210.49963,86.3698338 210.371131,92.6693744 210.335195,98.9710962 L210.270401,126.043908 C210.244266,130.303036 210.172393,134.556167 210.399444,138.797301 C210.490373,138.693699 210.580758,138.589552 210.670054,138.48486 C212.020925,136.906839 213.621171,135.582371 215.242107,134.278078 C215.560087,134.021799 215.90148,133.779153 216.081161,133.393644 C216.496604,132.500487 217.204436,131.907775 218.021166,131.41921 C219.004508,130.830315 219.589831,129.85155 220.162631,128.860789 C220.295486,128.630138 220.367358,128.332964 220.585697,128.192284 C222.110804,127.20643 222.888331,125.476824 224.240835,124.324662 C225.335797,123.392244 226.622963,122.65558 227.866026,121.87584 C228.8265,121.273313 229.851224,120.739491 230.842733,120.170771 C230.907527,120.133147 230.916784,120.034452 230.9843,120.001191 C231.578335,119.706198 232.402687,120.250381 233.235207,121.503964 C233.972442,122.61523 234.214194,123.445681 233.794939,123.829554" id="Fill-1" fill="#4A90E2" mask="url(#mask-2)"></path>
        </g>
    </g>
</svg>