<?xml version="1.0" encoding="UTF-8"?>
<svg width="1280px" height="600px" viewBox="0 0 1280 600" version="1.1" xmlns="http://www.w3.org/2000/svg" xmlns:xlink="http://www.w3.org/1999/xlink">
    <!-- Generator: Sketch 48.2 (47327) - http://www.bohemiancoding.com/sketch -->
    <title>Group 24</title>
    <desc>Created with Sketch.</desc>
    <defs></defs>
    <g id="Desktop-Copy" stroke="none" stroke-width="1" fill="none" fill-rule="evenodd" transform="translate(0.000000, -4981.000000)">
        <g id="Fill-1-+-Fill-1-Copy-4-+-Fill-1-Copy-3-Mask" transform="translate(0.000000, 4981.000000)">
            <g id="Group-24" transform="translate(-161.000000, -406.000000)">
                <path d="M887.297368,107.793895 C965.354936,-28.0631442 1206.50813,-31.8941761 1326.7219,75.9927511 C1333.77584,82.3239642 1423.86125,165.712985 1408.16787,276.150387 C1388.53571,414.295793 1211.86983,535.085976 1052.16652,484.077445 C891.195007,432.664629 817.590346,229.115064 887.297368,107.793895" id="Fill-1" fill="#FFD54F"></path>
                <path d="M1079.29737,710.793895 C1157.35494,574.936856 1398.50813,571.105824 1518.7219,678.992751 C1525.77584,685.323964 1615.86125,768.712985 1600.16787,879.150387 C1580.53571,1017.29579 1403.86983,1138.08598 1244.16652,1087.07744 C1083.19501,1035.66463 1009.59035,832.115064 1079.29737,710.793895" id="Fill-1-Copy-4" fill="#FFD54F" opacity="0.324388587"></path>
                <path d="M36.7875752,365.607196 C145.982861,175.790809 483.333781,170.438177 651.501672,321.175356 C661.369484,330.021184 787.3906,446.530441 765.437014,600.831085 C737.973455,793.844727 490.834304,962.610043 267.424205,891.342075 C42.2400102,819.509249 -60.7260737,535.114394 36.7875752,365.607196" id="Fill-1-Copy-3" fill="#FFCD40"></path>
            </g>
        </g>
    </g>
</svg>