<?xml version="1.0" encoding="UTF-8"?>
<svg width="122px" height="151px" viewBox="0 0 122 151" version="1.1" xmlns="http://www.w3.org/2000/svg" xmlns:xlink="http://www.w3.org/1999/xlink">
    <!-- Generator: Sketch 52.4 (67378) - http://www.bohemiancoding.com/sketch -->
    <title>Group 8</title>
    <desc>Created with Sketch.</desc>
    <defs>
        <linearGradient x1="50%" y1="0%" x2="50%" y2="100%" id="linearGradient-1">
            <stop stop-color="#0073FF" offset="0%"></stop>
            <stop stop-color="#006DFF" offset="98.2523483%"></stop>
        </linearGradient>
    </defs>
    <g id="Page-1" stroke="none" stroke-width="1" fill="none" fill-rule="evenodd">
        <g id="Group-8" fill-rule="nonzero">
            <g id="Group-11">
                <path d="M69.9998573,8.14916979 C69.9998573,8.54668282 69.7971101,8.84482395 69.4929958,9.14295236 C68.1751717,10.2361196 66.8573476,11.3293376 65.4380526,12.4224031 C65.0325583,12.7205442 65.0325583,13.0186726 65.1339254,13.4161856 C65.5394197,15.0062378 65.944914,16.5962899 66.3504083,18.2856885 C66.5531555,18.881958 66.3504083,19.3788557 65.8435469,19.7763941 C65.4380526,20.0745353 64.8298111,20.0745353 64.2215696,19.7763941 C62.7009334,18.8819962 61.2817682,17.9876491 59.761132,16.9938029 C59.4570048,16.7950464 59.2542706,16.7950464 58.9501434,16.9938029 C57.5308484,17.8882009 56.1116831,18.782548 54.6925178,19.577574 C54.2870235,19.8757152 53.8815292,19.9750871 53.3746937,19.8757152 C52.6650721,19.6769587 52.2595778,18.9813172 52.462338,18.285663 C52.8678323,16.496918 53.3746937,14.8073922 53.7801621,13.0186472 C53.8815422,12.720506 53.7801621,12.6211341 53.5774149,12.4223776 C52.2595908,11.4285951 51.0431078,10.335466 49.8266248,9.24227338 C49.3197634,8.84476035 48.9142691,8.44724732 49.0156362,7.75156771 C49.0156362,7.05591355 49.5224976,6.55902862 50.2321192,6.55902862 C52.0567788,6.459644 53.9829092,6.3602721 55.8076986,6.16151559 C56.1118258,6.16151559 56.2131929,5.96275907 56.31456,5.76400256 C56.9228015,4.27329689 57.531043,2.78259122 58.2406905,1.19253909 C58.3420706,1.09315448 58.3420706,0.89439796 58.4434377,0.795026063 C58.7475649,0.298141134 59.1530592,0 59.7612618,0 C60.3694643,0 60.7749976,0.298141134 60.9777448,0.89439796 C61.6873663,2.48445009 62.2955689,4.17384867 63.0052164,5.76390079 C62.8024692,6.16141382 63.0052164,6.36017034 63.4107107,6.36017034 L68.2766426,6.65831147 C68.4793898,6.65831147 68.783504,6.65831147 68.9862642,6.75768337 C69.5945057,6.95643989 70,7.55270943 70,8.14904258 L69.9998573,8.14916979 Z" id="Fill-1" fill="#FFC94C"></path>
                <path d="M104.517826,29.5926402 C104.226565,29.8976188 103.838226,29.9992696 103.449886,29.8976188 C101.799475,29.6943041 100.149064,29.5926402 98.4985284,29.3893386 C98.0131104,29.2876877 97.8189283,29.4910024 97.6247711,29.8976188 C96.8480924,31.3208866 95.9743599,32.8456491 95.1006275,34.2689169 C94.8093667,34.7771971 94.3239488,35.0821756 93.7413776,34.9805248 C93.1588065,34.8788739 92.7705292,34.4722446 92.6734382,33.7606367 C92.2850988,32.0324945 91.8967595,30.3043522 91.6054988,28.5760799 C91.5084077,28.1694505 91.4113291,28.0677997 91.0229898,27.9661358 C89.4696324,27.5595065 87.916275,27.1528771 86.2658638,26.8478986 C85.7804458,26.7462478 85.3921065,26.5429201 85.1979244,26.1362907 C84.809585,25.5263467 85.0037547,24.7130229 85.6833424,24.3065237 C87.2366997,23.3916141 88.6930034,22.3750017 90.2463608,21.4601182 C90.4405304,21.3584673 90.5376215,21.1551396 90.5376215,20.951838 C90.4405304,19.3253205 90.2463608,17.5971783 90.1492821,15.9706609 C90.0521911,15.3607168 90.0521911,14.7507728 90.5376215,14.3441434 C91.0230395,13.9375141 91.7026395,13.8358632 92.1880326,14.3441434 C93.5472825,15.5640315 94.9064081,16.7839196 96.1684799,18.0038077 C96.3626496,18.2071223 96.5568192,18.1054715 96.7509889,18.1054715 C98.2072925,17.4955275 99.6635962,16.7839586 101.216954,16.1739495 C101.314032,16.0722857 101.508214,16.0722857 101.605293,15.9706348 C102.090711,15.7673202 102.576141,15.868971 103.061597,16.2756134 C103.449936,16.6822427 103.547014,17.1905229 103.352857,17.800506 C102.673257,19.4270234 101.993607,21.0535408 101.314107,22.7816831 C101.217016,23.0866616 101.217016,23.2899633 101.411185,23.5949418 C102.479125,24.8148299 103.449936,26.0347179 104.5179,27.3562308 C104.71207,27.5595455 104.809161,27.7628602 104.906239,27.9661749 C105.100409,28.4744551 105.003331,29.0844121 104.5179,29.5926923 L104.517826,29.5926402 Z" id="Fill-2" fill="#FFC94C"></path>
                <path d="M113.85083,69.9998443 C113.453317,69.9998443 113.155176,69.7970973 112.857048,69.4929832 C111.76388,68.1751599 110.670662,66.8573366 109.577597,65.4380424 C109.279456,65.0325484 108.981327,65.0325484 108.583814,65.1339154 C106.993762,65.5394095 105.40371,65.9449035 103.714312,66.3503976 C103.118042,66.5531446 102.621144,66.3503976 102.223606,65.8435365 C101.925465,65.4380424 101.925465,64.8298013 102.223606,64.2215602 C103.118004,62.700925 104.012351,61.2817606 105.006197,59.7611254 C105.204954,59.4569983 105.204954,59.2542643 105.006197,58.9501372 C104.111799,57.5308431 103.217452,56.1116787 102.422426,54.6925143 C102.124285,54.2870202 102.024913,53.8815262 102.124285,53.374691 C102.323041,52.6650699 103.018683,52.2595758 103.714337,52.4623358 C105.503082,52.8678299 107.192608,53.374691 108.981353,53.7801591 C109.279494,53.8815391 109.378866,53.7801591 109.577622,53.5774121 C110.571405,52.2595888 111.664534,51.0431066 112.757727,49.8266243 C113.15524,49.3197632 113.552753,48.9142692 114.248432,49.0156362 C114.944086,49.0156362 115.440971,49.5224973 115.440971,50.2321184 C115.540343,52.0567769 115.639728,53.9829062 115.838484,55.8076944 C115.838484,56.1118214 116.037241,56.2131885 116.235997,56.3145555 C117.726703,56.9227966 119.217409,57.5310377 120.807461,58.2406848 C120.906833,58.3420648 121.105602,58.3420648 121.204974,58.4434318 C121.701859,58.7475589 122,59.1530529 122,59.7612551 C122,60.3694573 121.701859,60.7749903 121.105602,60.9777374 C119.51555,61.6873585 117.826151,62.2955607 116.236099,63.0052077 C115.937958,63.1065877 115.739214,63.3093348 115.739214,63.7148289 L115.441073,68.5807578 C115.441073,68.7835048 115.441073,69.0876189 115.341689,69.2903789 C115.043547,69.5945059 114.447291,70 113.850983,70 L113.85083,69.9998443 Z" id="Fill-3" fill="#FFC94C"></path>
                <path d="M92.4073598,104.517826 C92.1023812,104.226565 92.0007304,103.838226 92.1023812,103.449886 C92.3056959,101.799475 92.4073598,100.149064 92.6106614,98.4985284 C92.7123253,98.0131104 92.5090106,97.8189283 92.1023812,97.6247711 C90.6791134,96.8480924 89.1543509,95.9743599 87.7310831,95.1006275 C87.2228029,94.8093667 86.9178244,94.3239488 87.0194752,93.7413776 C87.1211261,93.1588065 87.5277554,92.7705292 88.2393633,92.6734382 C89.9675055,92.2850988 91.6956478,91.8967595 93.4239201,91.6054988 C93.8305495,91.5084077 93.9322003,91.4113291 94.0338642,91.0229898 C94.4404935,89.4696324 94.8471229,87.916275 95.1521014,86.2658638 C95.2537653,85.7804458 95.4570799,85.3921065 95.8637093,85.1979244 C96.4736533,84.809585 97.2869771,85.0037547 97.6934763,85.6833424 C98.6083859,87.2366997 99.6249983,88.6930034 100.539882,90.2463608 C100.641546,90.4405304 100.84486,90.5376215 101.048162,90.5376215 C102.674679,90.4405304 104.402822,90.2463608 106.029339,90.1492821 C106.639283,90.0521911 107.249227,90.0521911 107.655857,90.5376215 C108.062486,91.0230395 108.164137,91.7026395 107.655857,92.1880326 C106.435968,93.5472825 105.21608,94.9064081 103.996192,96.1684799 C103.792878,96.3626496 103.894542,96.5568192 103.894542,96.7509889 C104.504486,98.2072925 105.216054,99.6635962 105.826063,101.216954 C105.927714,101.314032 105.927714,101.508214 106.029378,101.605293 C106.232693,102.090711 106.131029,102.576141 105.7244,103.061597 C105.31777,103.449936 104.80949,103.547014 104.199507,103.352857 C102.57299,102.673257 100.946472,101.993607 99.2183299,101.314107 C98.9133514,101.217016 98.7100497,101.217016 98.4050712,101.411185 C97.1851831,102.479125 95.9652951,103.449936 94.6437822,104.5179 C94.4404675,104.71207 94.2371528,104.809161 94.0338381,104.906239 C93.525558,105.100409 92.9156009,105.003331 92.4073207,104.5179 L92.4073598,104.517826 Z" id="Fill-4" fill="#FFC94C"></path>
                <path d="M52.0001557,113.850827 C52.0001557,113.453314 52.2029027,113.155173 52.5070168,112.857045 C53.8248401,111.763882 55.1426634,110.670664 56.5619576,109.577598 C56.9674516,109.279457 56.9674516,108.981329 56.8660846,108.583816 C56.4605905,106.993763 56.0550965,105.403711 55.6496024,103.714312 C55.4468554,103.118042 55.6496024,102.621144 56.1564635,102.223606 C56.5619576,101.925465 57.1701987,101.925465 57.7784398,102.223606 C59.299075,103.118004 60.7182394,104.012351 62.2388746,105.006198 C62.5430017,105.204954 62.7457357,105.204954 63.0498628,105.006198 C64.4691569,104.1118 65.8883213,103.217452 67.3074857,102.422426 C67.7129798,102.124285 68.1184738,102.024913 68.625309,102.124285 C69.3349301,102.323041 69.7404242,103.018683 69.5376642,103.714337 C69.1321701,105.503083 68.625309,107.192609 68.2198409,108.981354 C68.1184609,109.279495 68.2198409,109.378867 68.4225879,109.577624 C69.7404112,110.571407 70.9568934,111.664536 72.1733757,112.757725 C72.6802368,113.155238 73.0857308,113.552751 72.9843638,114.248431 C72.9843638,114.944085 72.4775027,115.44097 71.7678816,115.44097 C69.9432231,115.540348 68.0170938,115.639727 66.1923056,115.838483 C65.8881786,115.838483 65.7868115,116.03724 65.6854445,116.235996 C65.0772034,117.726702 64.4689623,119.217408 63.7593152,120.807461 C63.6579352,120.906839 63.6579352,121.105602 63.5565682,121.204974 C63.2524411,121.701859 62.8469471,122 62.2387449,122 C61.6305427,122 61.2250097,121.701859 61.0222626,121.105602 C60.3126415,119.515549 59.7044393,117.826151 58.9947923,116.236098 C58.8934123,115.937957 58.6906652,115.739213 58.2851711,115.739213 L53.4192422,115.441072 C53.2164952,115.441072 52.9123811,115.441072 52.7096211,115.341694 C52.4054941,115.043552 52,114.447295 52,113.850988 L52.0001557,113.850827 Z" id="Fill-5" fill="#FFC94C"></path>
                <path d="M17.4821841,92.4073598 C17.7734446,92.1023812 18.1617838,92.0007304 18.5501229,92.1023812 C20.2005333,92.3056959 21.8509436,92.4073598 23.5014783,92.6106614 C23.986896,92.7123253 24.181078,92.5090106 24.3752351,92.1023812 C25.1519135,90.6791134 26.0256455,89.1543509 26.8993775,87.7310831 C27.1906381,87.2228029 27.6760558,86.9178244 28.2586267,87.0194752 C28.8411976,87.1211261 29.2294746,87.5277554 29.3265656,88.2393633 C29.7149048,89.9675055 30.1032439,91.6956478 30.3945045,93.4239201 C30.4915831,93.8305495 30.5886741,93.9322003 30.9770132,94.0338642 C32.5303698,94.4404935 34.0837265,94.8471229 35.7341368,95.1521014 C36.2195546,95.2537653 36.6078937,95.4570799 36.8020757,95.8637093 C37.1904149,96.4736533 36.9962453,97.2869771 36.316658,97.6934763 C34.7633014,98.6083859 33.3069985,99.6249983 31.7536418,100.539882 C31.5594722,100.641546 31.4623812,100.84486 31.4623812,101.048162 C31.5594598,102.674679 31.7536418,104.402822 31.8507204,106.029339 C31.947799,106.639283 31.947799,107.249227 31.4623812,107.655857 C30.9769511,108.062486 30.2973638,108.164137 29.8119709,107.655857 C28.4527217,106.435968 27.0935968,105.21608 25.8315256,103.996192 C25.637356,103.792878 25.4431865,103.894542 25.2490169,103.894542 C23.792714,104.504486 22.3364111,105.216054 20.7830545,105.826063 C20.6859635,105.927714 20.4917939,105.927714 20.3947153,106.029378 C19.9092976,106.232693 19.4238674,106.131029 18.9384124,105.7244 C18.5500732,105.31777 18.4529947,104.80949 18.6471518,104.199507 C19.3267516,102.57299 20.006401,100.946472 20.6859013,99.2183299 C20.7829799,98.9133514 20.7829799,98.7100497 20.5888103,98.4050712 C19.5208714,97.1851831 18.5500608,95.9652951 17.4820971,94.6437822 C17.2879275,94.4404675 17.1908365,94.2371528 17.0937579,94.0338381 C16.8995883,93.525558 16.9966793,92.9156009 17.4820971,92.4073207 L17.4821841,92.4073598 Z" id="Fill-6" fill="#FFC94C"></path>
                <path d="M8.14916979,52.0001427 C8.54668282,52.0001427 8.84482395,52.2028899 9.14295236,52.5070042 C10.2361196,53.8248283 11.3293376,55.1426524 12.4224031,56.5619474 C12.7205442,56.9674417 13.0186726,56.9674417 13.4161856,56.8660746 C15.0062378,56.4605803 16.5962899,56.055086 18.2856885,55.6495917 C18.881958,55.4468445 19.3788557,55.6495917 19.7763941,56.1564531 C20.0745353,56.5619474 20.0745353,57.1701889 19.7763941,57.7784304 C18.8819962,59.2990666 17.9876491,60.7182318 16.9938029,62.238868 C16.7950464,62.5429952 16.7950464,62.7457294 16.9938029,63.0498566 C17.8882009,64.4691516 18.782548,65.8883169 19.577574,67.3074822 C19.8757152,67.7129765 19.9750871,68.1184708 19.8757152,68.6253063 C19.6769587,69.3349279 18.9813172,69.7404222 18.285663,69.537662 C16.496918,69.1321677 14.8073922,68.6253063 13.0186472,68.2198379 C12.720506,68.1184578 12.6211341,68.2198379 12.4223776,68.4225851 C11.4285951,69.7404092 10.335466,70.9568922 9.24227338,72.1733752 C8.84476035,72.6802366 8.44724732,73.0857309 7.75156771,72.9843638 C7.05591355,72.9843638 6.55902862,72.4775024 6.55902862,71.7678808 C6.45965036,69.9432212 6.3602721,68.0170908 6.16151559,66.1923014 C6.16151559,65.8881742 5.96275907,65.7868071 5.76400256,65.68544 C4.27329689,65.0771985 2.78259122,64.468957 1.19253909,63.7593095 C1.09316084,63.6579294 0.89439796,63.6579294 0.795026063,63.5565623 C0.298141134,63.2524351 0,62.8469408 0,62.2387382 C0,61.6305357 0.298141134,61.2250024 0.89439796,61.0222552 C2.48445009,60.3126337 4.17384867,59.7044311 5.76390079,58.9947836 C6.16141382,59.1975308 6.36017034,58.9947836 6.36017034,58.5892893 L6.65831147,53.7233574 C6.65831147,53.5206102 6.65831147,53.216496 6.75768973,53.0137358 C6.95644625,52.4054943 7.55271579,52 8.14904894,52 L8.14916979,52.0001427 Z" id="Fill-7" fill="#FFC94C"></path>
                <path d="M29.5926402,17.4821841 C29.8976188,17.7734446 29.9992696,18.1617838 29.8976188,18.5501229 C29.6943041,20.2005333 29.5926402,21.8509436 29.3893386,23.5014783 C29.2876877,23.986896 29.4910024,24.181078 29.8976188,24.3752351 C31.3208866,25.1519135 32.8456491,26.0256455 34.2689169,26.8993775 C34.7771971,27.1906381 35.0821756,27.6760558 34.9805248,28.2586267 C34.8788739,28.8411976 34.4722446,29.2294746 33.7606367,29.3265656 C32.0324945,29.7149048 30.3043522,30.1032439 28.5760799,30.3945045 C28.1694505,30.4915831 28.0677997,30.5886741 27.9661358,30.9770132 C27.5595065,32.5303698 27.1528771,34.0837265 26.8478986,35.7341368 C26.7462478,36.2195546 26.5429201,36.6078937 26.1362907,36.8020757 C25.5263467,37.1904149 24.7130229,36.9962453 24.3065237,36.316658 C23.3916141,34.7633014 22.3750017,33.3069985 21.4601182,31.7536418 C21.3584673,31.5594722 21.1551396,31.4623812 20.951838,31.4623812 C19.3253205,31.5594598 17.5971783,31.7536418 15.9706609,31.8507204 C15.3607168,31.947799 14.7507728,31.947799 14.3441434,31.4623812 C13.9375141,30.9769511 13.8358632,30.2973638 14.3441434,29.8119709 C15.5640315,28.4527217 16.7839196,27.0935968 18.0038077,25.8315256 C18.2071223,25.637356 18.1054715,25.4431865 18.1054715,25.2490169 C17.4955275,23.792714 16.7839586,22.3364111 16.1739495,20.7830545 C16.0722857,20.6859635 16.0722857,20.4917939 15.9706348,20.3947153 C15.7673202,19.9092976 15.868971,19.4238674 16.2756134,18.9384124 C16.6822427,18.5500732 17.1905229,18.4529947 17.800506,18.6471518 C19.4270234,19.3267516 21.0535408,20.006401 22.7816831,20.6859013 C23.0866616,20.7829799 23.2899633,20.7829799 23.5949418,20.5888103 C24.8148299,19.5208714 26.0347179,18.5500608 27.3562308,17.4820971 C27.5595455,17.2879275 27.7628602,17.1908365 27.9661749,17.0937579 C28.4744551,16.8995883 29.0844121,16.9966793 29.5926923,17.4820971 L29.5926402,17.4821841 Z" id="Fill-8" fill="#FFC94C"></path>
                <path d="M87.7869489,48.4521629 L87.5864981,48.2526536 C87.4862791,48.1528926 87.4862791,48.1528926 87.3860473,48.1528926 L87.2858283,48.0531443 C87.2858283,48.0531443 87.1855965,48.0531443 87.1855965,47.9533833 L86.884914,47.853635 C86.784695,47.753874 86.5842314,47.753874 86.4840124,47.6541257 C84.0786031,46.8560885 81.4728072,47.2551071 79.0673979,47.4546164 L78.7667154,47.4546164 L77.8646933,47.4546164 L77.3635728,47.4546164 L76.9626712,47.4546164 C76.4615507,47.4546164 75.8601856,47.4546164 75.359065,47.5543647 L75.0583825,47.5543647 L74.8579317,47.5543647 L74.3568112,47.5543647 C74.0561286,47.5543647 73.7554589,47.6541257 73.5550081,47.6541257 L73.3545573,47.6541257 C73.2543383,47.6541257 73.2543383,47.5543647 73.2543383,47.5543647 L73.9559225,45.1602531 C74.356824,43.6639015 74.8579445,42.1675498 75.2588204,40.6713258 C75.9604045,38.5765101 76.1608425,36.7808626 75.9604045,35.1847882 C75.7599538,33.0899725 74.4569917,31.0948795 72.6529988,29.9975465 C71.650745,29.3990186 70.4479762,29 69.2453998,29 L68.9447173,29 C67.8422316,29 67.1407244,29.6982889 67.0404028,30.7955198 C66.940171,32.1921488 66.7397203,33.4889273 66.5392823,34.7857058 C66.2385997,36.9803719 65.6372603,38.7758917 64.7352895,40.2722434 C64.234169,41.1700289 63.6328038,41.9680405 62.9312967,42.666355 C62.0292746,43.6639015 61.0269823,44.7611707 59.9244709,45.9582265 L57.4188683,48.7513566 C56.817516,49.4496456 56.2161637,50.0481351 55.6148755,50.6467269 C55.5146437,50.7464879 55.314193,50.9459972 55.113755,51.0457455 C54.7128535,51.4447641 54.2117329,51.7440344 53.7105354,51.9435309 C53.4098529,52.043292 53.0089513,52.2428013 52.5078308,52.3425495 C50.4031298,52.9410774 49.2004251,53.5396053 49.1002318,54.7366611 C49.1002318,55.43495 49,56.0334396 49,56.6320313 L49,57.0310499 L49,58.6271243 L49,78.078802 L52.5079206,78.078802 C53.6104063,78.2783113 54.8131366,78.4778206 56.3165494,78.6773299 L57.0181336,78.7770909 C59.9246377,79.2758578 62.7309485,79.6748764 65.4370661,80.0738695 C72.152199,80.8719066 80.1697168,82.7672769 85.0806004,76.781998 C87.0851082,74.2881637 87.2856231,70.796719 87.6863963,67.8041434 C88.3879805,62.9161975 89.2900025,57.9284013 89.9916123,53.0410938 C90.0918441,51.4450194 89.2900282,49.5496492 87.7865896,48.4523161 L87.7869489,48.4521629 Z" id="Fill-9" fill="url(#linearGradient-1)"></path>
                <path d="M42.916047,50 L34.083953,50 C32.8931046,50 32,50.8852368 32,52.0655358 L32,77.9344642 C32,79.1147884 32.89313,80 34.083953,80 L42.916047,80 C44.1068954,80 45,79.1147632 45,77.9344642 L45,52.0655358 C45,50.8852116 44.10687,50 42.916047,50 Z" id="Fill-10" fill="url(#linearGradient-1)"></path>
            </g>
            <ellipse id="Oval" fill="#F3F3F3" cx="61.5" cy="147" rx="32.5" ry="4"></ellipse>
        </g>
    </g>
</svg>