<?xml version="1.0" encoding="UTF-8"?>
<svg width="96px" height="131px" viewBox="0 0 96 131" version="1.1" xmlns="http://www.w3.org/2000/svg" xmlns:xlink="http://www.w3.org/1999/xlink">
    <!-- Generator: Sketch 52.4 (67378) - http://www.bohemiancoding.com/sketch -->
    <title>Group 9</title>
    <desc>Created with Sketch.</desc>
    <defs>
        <linearGradient x1="50%" y1="0%" x2="50%" y2="100%" id="linearGradient-1">
            <stop stop-color="#0073FF" offset="0%"></stop>
            <stop stop-color="#006DFF" offset="98.2523483%"></stop>
        </linearGradient>
    </defs>
    <g id="Page-1" stroke="none" stroke-width="1" fill="none" fill-rule="evenodd">
        <g id="Group-9" fill-rule="nonzero">
            <g id="Group-7">
                <path d="M48.102,57.301 L39.8012,57.301 C38.1996,57.301 36.8012,58.6018 36.8012,60.301 L36.8012,65.4026 C36.8012,67.0042 38.102,68.4026 39.8012,68.4026 L48.102,68.4026 C49.7036,68.4026 51.102,67.1018 51.102,65.4026 L51.102,60.301 C51.102,58.6994 49.6997,57.301 48.102,57.301 Z" id="Fill-1" fill="#FFC94C"></path>
                <path d="M26.699,57.301 L18.3982,57.301 C16.7966,57.301 15.3982,58.6018 15.3982,60.301 L15.3982,65.4026 C15.3982,67.0042 16.699,68.4026 18.3982,68.4026 L26.699,68.4026 C28.3006,68.4026 29.699,67.1018 29.699,65.4026 L29.699,60.301 C29.699,58.6994 28.3006,57.301 26.699,57.301 Z" id="Fill-2" fill="#FFC94C"></path>
                <path d="M48.102,38.602 L39.8012,38.602 C38.1996,38.602 36.8012,39.9028 36.8012,41.602 L36.8012,46.7036 C36.8012,48.3052 38.102,49.7036 39.8012,49.7036 L48.102,49.7036 C49.7036,49.7036 51.102,48.4028 51.102,46.7036 L51.102,41.602 C51.102,40.0004 49.6997,38.602 48.102,38.602 Z" id="Fill-3" fill="#FFC94C"></path>
                <path d="M26.699,38.602 L18.3982,38.602 C16.7966,38.602 15.3982,39.9028 15.3982,41.602 L15.3982,46.7036 C15.3982,48.3052 16.699,49.7036 18.3982,49.7036 L26.699,49.7036 C28.3006,49.7036 29.699,48.4028 29.699,46.7036 L29.699,41.602 C29.699,40.0004 28.3006,38.602 26.699,38.602 Z" id="Fill-4" fill="#FFC94C"></path>
                <path d="M69.5,38.602 L61.1992,38.602 C59.5976,38.602 58.1992,39.9028 58.1992,41.602 L58.1992,46.7036 C58.1992,48.3052 59.5,49.7036 61.1992,49.7036 L69.5,49.7036 C71.1016,49.7036 72.5,48.4028 72.5,46.7036 L72.5,41.602 C72.5,40.0004 71.1016,38.602 69.5,38.602 Z" id="Fill-5" fill="#FFC94C"></path>
                <path d="M87.398,58.199 L87.398,18.5 C87.398,15.8984 86.398,13.6016 84.7964,11.8008 L84.7964,11.69924 L84.69484,11.69924 C82.79644,9.59764 80.09324,8.30084 77.09324,8.30084 L69.59324,8.30084 L69.60105,3.80084 C69.60105,1.90244 68.10105,0.40244 66.20265,0.40244 L61.10105,0.40244 C59.20265,0.40244 57.70265,1.90244 57.70265,3.80084 L57.70265,8.30084 L30.10065,8.30084 L30.10065,3.80084 C30.10065,1.90244 28.60065,0.40244 26.70225,0.40244 L21.60065,0.40244 C19.70225,0.40244 18.20225,1.90244 18.20225,3.80084 L18.20225,8.30084 L10.70225,8.30084 C7.702255,8.30084 5.003054,9.60164 3.100654,11.69924 L3.100654,11.8008 C1.499054,13.6016 0.499055,15.9024 0.499055,18.5 L0.499055,73 C0.499055,78.6016 5.100655,83.199 10.69805,83.199 L58.59605,83.199 C61.89685,89.398201 68.39685,93.597 75.89705,93.597 C86.69805,93.597 95.49905,84.7962 95.49905,73.995 C95.49905,67.4989 92.29985,61.698 87.39745,58.198 L87.398,58.199 Z M56.3,74 C56.3,74.80078 56.40156,75.6016 56.49922,76.3984 L10.69822,76.3984 C8.79982,76.3984 7.299824,74.8984 7.299824,73 L7.299824,31.398 L80.49882,31.398 L80.49882,55 C78.99882,54.60156 77.49882,54.39844 75.89722,54.39844 C65.10022,54.39844 56.29922,63.19924 56.29922,74.00044 L56.3,74 Z M83.999,78.1016 L74.3974,78.1016 C72.999,78.1016 71.7958,77 71.7958,75.5 L71.79971,65.398 C71.79971,63.9996 72.90131,62.7964 74.40131,62.7964 C75.79971,62.7964 77.00291,63.898 77.00291,65.398 L76.999,72.9996 L83.999,72.9996 C85.3974,72.9996 86.6006,74.1012 86.6006,75.6012 C86.49904,76.9996 85.3975,78.1012 83.999,78.1012 L83.999,78.1016 Z" id="Fill-6" fill="url(#linearGradient-1)"></path>
            </g>
            <ellipse id="Oval-Copy-6" fill="#F3F3F3" cx="48.5" cy="127" rx="32.5" ry="4"></ellipse>
        </g>
    </g>
</svg>