<?xml version="1.0" encoding="UTF-8"?>
<svg width="78px" height="114px" viewBox="0 0 78 114" version="1.1" xmlns="http://www.w3.org/2000/svg" xmlns:xlink="http://www.w3.org/1999/xlink">
    <!-- Generator: Sketch 52.4 (67378) - http://www.bohemiancoding.com/sketch -->
    <title>Group 10</title>
    <desc>Created with Sketch.</desc>
    <defs>
        <linearGradient x1="50%" y1="0%" x2="50%" y2="100%" id="linearGradient-1">
            <stop stop-color="#0073FF" offset="0%"></stop>
            <stop stop-color="#006DFF" offset="98.2523483%"></stop>
        </linearGradient>
    </defs>
    <g id="Page-1" stroke="none" stroke-width="1" fill="none" fill-rule="evenodd">
        <g id="Group-10" fill-rule="nonzero">
            <g id="Group-4">
                <path d="M67.870336,51.0686967 C65.7536935,51.8723712 62.3372555,52.757699 58.5970076,53.5613735 C57.2939577,55.7306516 54.7737733,57.5797458 50.950539,58.2233284 C50.0542854,58.3834364 48.9992185,58.4650576 47.9408973,58.5435444 C45.2553909,58.6251656 42.0836815,58.3834364 38.5845825,58.060086 C38.3398701,58.060086 38.0951577,58.060086 37.8536183,57.9784648 C37.0400257,57.8968436 36.3090942,57.2564115 36.2264331,56.4527692 C36.1438047,55.4073494 37.0400257,54.5252363 38.098347,54.603675 C38.3430594,54.603675 38.6672272,54.6852961 38.9119396,54.6852961 C43.3866988,55.0871334 47.6995532,55.4073494 50.3022359,54.9270254 C55.2664525,54.0416976 56.648909,50.9903063 56.3215193,48.4976296 C56.076807,46.4884434 54.5322665,44.4792572 52.0914887,44.6393491 C48.5923897,44.8810783 44.5244267,44.6393491 40.5392875,44.3191331 C35.9818672,43.998917 31.2659591,43.8356747 27.9286023,44.2375119 C24.1847746,44.6393491 16.7002109,47.3705565 10.0295652,51.7907661 C6.77519484,53.9600442 3.19669081,56.5311596 0.99706187,58.1385086 C-0.140666013,58.942183 -0.305988028,60.4678787 0.507637109,61.5949517 L10.1877602,74.0551224 C11.0013528,75.1005422 12.5458769,75.3422875 13.6041982,74.4569597 L17.1827038,71.7257523 C17.9962964,71.0821859 19.1340243,70.9220779 20.1129389,71.2422939 C26.6216797,73.2514801 33.5372167,74.6170838 38.011976,74.8588291 C47.936992,75.3422875 66.8945131,63.767316 72.3447699,60.0728244 C77.8778504,56.374636 73.971955,48.9001419 67.8700106,51.0692593 L67.870336,51.0686967 Z" id="Fill-1" fill="url(#linearGradient-1)"></path>
                <path d="M40.930926,24.6311161 L26,20.1617112 L26,30.4023367 C26,32.2720107 27.2106156,33.8972488 28.9855395,34.4654321 L35.5241552,36.4144177 C42.7058499,38.5285274 50.2944729,38.5285274 57.4758448,36.4144177 L64.0144605,34.4654321 C65.7893844,33.8972326 67,32.2720107 67,30.4023367 L67,20 L51.6655354,24.6312786 C49.9693823,25.1201177 48.1944583,25.3613681 46.3375354,25.3613681 C44.4806124,25.3645454 42.6236895,25.1201177 40.9307646,24.6312786 L40.930926,24.6311161 Z" id="Fill-2" fill="#FFC94C"></path>
                <path d="M15.3442724,12.1850905 L41.8377803,20.0113532 C44.4457196,20.826453 47.2988666,20.826453 49.9896288,20.0113532 L72.652583,13.2453724 L72.652583,19.1962533 C72.1622004,19.4414191 71.9201883,19.9285716 71.9201883,20.5017172 L71.9201883,22.1319169 C71.9201883,22.701851 72.2449906,23.2717525 72.8181959,23.5169346 L71.4330338,26.8601481 C71.2706327,27.267698 71.515824,27.7580621 72.0030274,27.8376158 L73.4710123,28 L74.3690199,28 L75.8370048,27.8376158 C76.3273874,27.7548343 76.5693995,27.2676817 76.4069984,26.8601481 L75.0218363,23.5169346 C75.5122189,23.2717688 75.9198439,22.7846163 75.9198439,22.1319169 L75.9198439,20.5017172 C75.9198439,19.9317831 75.5950416,19.4414354 75.1874492,19.1962533 L75.1874492,12.5130867 L76.6554341,12.1055368 C78.4481886,11.5356027 78.4481886,9.00750532 76.6554341,8.43758751 L49.9899223,0.611324881 C47.3819829,-0.20377496 44.5288359,-0.20377496 41.8380737,0.611324881 L15.3445659,8.43758751 C13.5518114,9.00752162 13.5518114,11.6151727 15.3445659,12.1851721 L15.3442724,12.1850905 Z" id="Fill-3" fill="#FFC94C"></path>
            </g>
            <ellipse id="Oval-Copy-7" fill="#F3F3F3" cx="39.5" cy="110" rx="32.5" ry="4"></ellipse>
        </g>
    </g>
</svg>