<?xml version="1.0" encoding="UTF-8"?>
<svg width="100px" height="120px" viewBox="0 0 100 120" version="1.1" xmlns="http://www.w3.org/2000/svg" xmlns:xlink="http://www.w3.org/1999/xlink">
    <!-- Generator: Sketch 52.4 (67378) - http://www.bohemiancoding.com/sketch -->
    <title>Group 13</title>
    <desc>Created with Sketch.</desc>
    <defs>
        <linearGradient x1="50%" y1="0%" x2="50%" y2="100%" id="linearGradient-1">
            <stop stop-color="#0073FF" offset="0%"></stop>
            <stop stop-color="#006DFF" offset="98.2523483%"></stop>
        </linearGradient>
    </defs>
    <g id="Page-1" stroke="none" stroke-width="1" fill="none" fill-rule="evenodd">
        <g id="Group-13" fill-rule="nonzero">
            <g id="Group-12">
                <path d="M30.6557722,75.7597958 C41.7067722,75.7793358 52.3667722,71.6659958 60.5347722,64.2207958 C61.1246122,63.6622058 61.4175822,62.8535958 61.3238322,62.0449958 C61.2261722,61.2364058 60.7535222,60.5215958 60.0465322,60.1191958 C55.4645322,57.5839958 50.5465322,55.7207958 45.4335322,54.5879958 C45.3397822,54.5645658 45.2733722,54.4786158 45.2733722,54.3809658 L45.2733722,51.3809658 C47.0350722,49.0801658 48.3514722,46.4707658 49.1561722,43.6895658 C51.1561722,41.6895658 52.0467722,38.5801658 52.5155722,36.8887658 C53.2968222,34.1504658 54.0741722,30.1778658 51.9257322,27.3379658 L51.8358922,27.2168758 C52.8358922,22.2168758 54.1561922,10.4668758 45.2147922,4.50587576 L45.2147922,4.50978576 C46.2616922,3.44728576 46.8319922,2.00198576 46.7967922,0.509785755 C46.7850722,0.365255755 46.7147622,0.232445755 46.6053822,0.138695755 C46.4921022,0.0488557555 46.3475722,0.00588575548 46.2069422,0.0215057555 C46.0975622,0.0215057555 34.9059422,1.29100576 29.5269422,0.181665755 C24.1480422,-0.927734245 17.9249422,3.23246576 16.6749422,7.53326576 L16.6749422,7.52935576 C14.5851422,7.80279576 12.6827422,8.88095576 11.3741422,10.5293558 C8.93273823,13.5293558 8.18273823,18.3301558 9.15533823,24.7593558 C9.21393223,25.5874758 9.32721823,26.3999558 9.46392823,27.2398558 L9.36236823,27.3609458 C7.23346823,30.1382458 8.01466823,34.1187458 8.79595823,36.8492458 C9.27642823,38.5406458 10.1553622,41.6695458 12.1553622,43.6383458 C12.9561422,46.4430458 14.2725622,49.0719458 16.0459622,51.3883458 L16.0459622,54.3883458 C16.0459622,54.4899058 15.9795522,54.5758458 15.8858022,54.5992858 C10.7803022,55.7242858 5.86579723,57.5797858 1.29579823,60.1109858 C0.588768229,60.5133258 0.112197929,61.2281858 0.0184979292,62.0367858 C-0.0791580708,62.8453758 0.213807829,63.6500858 0.803658229,64.2086858 C8.96385823,71.6500858 19.6126622,75.7706858 30.6556522,75.7596858 L30.6557722,75.7597958 Z M30.6557722,65.3887958 C25.9213722,65.4434858 21.4526722,63.2090958 18.6557722,59.3887958 C19.8784722,58.7091058 20.8119722,57.6035958 21.2729722,56.2793958 C22.5229722,57.1036158 23.8667722,57.7754958 25.2729722,58.2793958 C28.7651722,59.5137958 32.5737722,59.5137958 36.0659722,58.2793958 C37.4721722,57.7715858 38.8159722,57.0996958 40.0659722,56.2793958 C40.5230022,57.6191958 41.4604722,58.7402958 42.6948722,59.4277958 C39.8784722,63.2441958 35.3940722,65.4668958 30.6558722,65.3886958 L30.6557722,65.3887958 Z M13.5857722,35.4977958 C12.5857722,32.0172958 13.0154622,30.7594958 13.3553022,30.3180958 C13.5974922,30.0212158 13.9724922,29.8610658 14.3553022,29.9001258 L14.5349922,29.9001258 C14.8240522,29.9157558 15.0740522,29.6970058 15.0935822,29.4079358 C15.0935822,29.3298158 15.7146722,21.8376358 20.1521822,19.1379358 C22.3709822,17.7863358 25.2224822,17.8371358 28.6209822,19.2863758 C35.6209822,22.2863758 40.7619822,22.0675758 43.9099822,21.3644758 C47.5115822,24.0128758 46.4685822,28.2628758 46.2302822,29.0832758 L46.2302822,29.1848358 L46.2341922,29.1887458 C46.1755922,29.3567158 46.2068422,29.5481258 46.3162222,29.6887458 C46.4256022,29.8332758 46.6052822,29.9074958 46.7849722,29.8879658 C47.2263822,29.8059358 47.6795022,29.9621858 47.9763722,30.2981258 C48.3044922,30.7395358 48.7263722,31.9973258 47.7459022,35.4778258 C46.4842022,39.9387258 45.4568022,40.3567258 45.1756022,40.3762258 L45.1756022,40.3801258 C44.9295122,40.3957558 44.7263822,40.5832458 44.6951322,40.8293458 C43.9646622,45.5793458 40.1834322,51.4773458 34.3861322,53.5673458 C31.9799322,54.4228158 29.3509322,54.4228158 26.9447322,53.5673458 C20.9447322,51.4384458 17.3861322,45.4657458 16.6637322,40.8053458 L16.6637322,40.8092558 C16.6285722,40.5670658 16.4293522,40.3795658 16.1832622,40.3600358 C15.8746722,40.3795658 14.8434622,39.9498758 13.5855622,35.4967358 L13.5857722,35.4977958 Z" id="Fill-1" fill="url(#linearGradient-1)"></path>
                <path d="M80.5347722,10.2707958 L80.5348522,10.2714458 C87.4259522,10.4003458 93.7228522,14.2010458 97.0548522,20.2362458 C100.386872,26.2672458 100.246272,33.6229458 96.6876622,39.5252458 C93.1246622,45.4275458 86.6872622,48.9822558 79.7966622,48.8494458 L62.9056622,48.8494458 C62.2689622,48.8455358 61.6634722,48.5877258 61.2181622,48.1306958 C60.7728522,47.6775958 60.5267622,47.0643158 60.5345722,46.4275958 L60.5345722,29.5405958 C60.5345722,24.3019958 62.6673722,19.2902958 66.4407722,15.6535958 C70.2147722,12.0207958 75.3003722,10.0754858 80.5347722,10.2707958 Z M77.2964722,19.4816958 L77.3042422,19.4777958 C77.0815922,19.7043558 76.9605022,20.0129458 76.9644022,20.3293558 L77.3159622,32.3293558 C77.3316622,32.9230958 77.8199122,33.3996558 78.4136622,33.3996558 L81.1636622,33.3996558 C81.7613522,33.3996558 82.2496422,32.9231058 82.2652622,32.3293558 L82.2613622,32.3293558 L82.6129222,20.3293558 C82.6246422,20.0090458 82.5035522,19.7043558 82.2808922,19.4738858 C82.0582322,19.2473258 81.7535422,19.1184158 81.4332322,19.1184158 L78.1441322,19.1184158 C77.8238122,19.1184158 77.5191322,19.2473258 77.2964722,19.4777958 L77.2964722,19.4816958 Z M82.6167722,39.0716958 L82.6753622,37.3685958 C82.6753622,36.5287858 81.9957022,35.8490958 81.1558622,35.8490958 L78.5347622,35.8490958 C77.6949522,35.8490958 77.0152622,36.5287558 77.0152622,37.3685958 L77.0152622,39.0677958 C77.0152622,39.9076058 77.6949222,40.5872958 78.5347622,40.5872958 L81.0933622,40.5872958 C81.9331722,40.5872958 82.6128622,39.9076358 82.6128622,39.0677958 L82.6167722,39.0716958 Z" id="Combined-Shape" fill="#FFC94C"></path>
            </g>
            <ellipse id="Oval-Copy-8" fill="#F3F3F3" cx="50.5" cy="116" rx="32.5" ry="4"></ellipse>
        </g>
    </g>
</svg>