<?xml version="1.0" encoding="UTF-8"?>
<svg width="69px" height="114px" viewBox="0 0 69 114" version="1.1" xmlns="http://www.w3.org/2000/svg" xmlns:xlink="http://www.w3.org/1999/xlink">
    <!-- Generator: Sketch 52.4 (67378) - http://www.bohemiancoding.com/sketch -->
    <title>Group 14</title>
    <desc>Created with Sketch.</desc>
    <defs>
        <linearGradient x1="50%" y1="0%" x2="50%" y2="100%" id="linearGradient-1">
            <stop stop-color="#0073FF" offset="0%"></stop>
            <stop stop-color="#006DFF" offset="98.2523483%"></stop>
        </linearGradient>
    </defs>
    <g id="Page-1" stroke="none" stroke-width="1" fill="none" fill-rule="evenodd">
        <g id="Group-14" fill-rule="nonzero">
            <g id="Group-3">
                <path d="M43.64212,60.3545862 C42.6349016,62.8266031 39.897319,64.1365182 37.3032131,63.4091121 C36.4394714,63.1192822 35.7192066,62.8266177 35.1424185,62.2440963 L33.9888423,67.1910411 C33.70186,68.500954 32.4048358,69.2283608 31.1077829,68.9356526 L23.9051343,67.1910411 C24.6253992,66.3187357 25.2021872,65.0088228 25.2021872,63.6989107 C25.2021872,61.5166902 23.7616575,59.4793712 21.7443397,58.7519651 C18.7198035,57.5869515 15.5489095,59.4793712 14.6851679,62.5338949 C14.5416767,63.4062003 14.5416767,64.1336086 14.6851679,65.0059139 L7.48251933,63.261301 C6.18546638,62.9714733 5.46520008,61.6615895 5.7550361,60.3516766 L7.05208906,54.680164 C6.3318242,54.9699917 5.46808114,55.1177425 4.60433952,54.9699917 C1.57980334,54.5324133 -0.580991236,51.4778606 0.139273621,48.5682362 C0.716047313,45.6586118 3.59712115,43.7661921 6.62165878,44.4935982 C7.62887715,44.7834259 8.63897659,45.3659036 9.35924145,46.0933097 L10.6562944,40.4189602 C10.9432767,39.1090473 12.2403009,38.3816412 13.5373538,38.6743495 L21.3169346,40.5667691 C20.5966697,39.111957 20.5966697,37.3673462 21.4604257,35.7647251 C22.3241673,34.0201143 24.1980084,33 26.2153262,33 C29.6731737,33.1449138 32.1209218,36.3472319 31.2571802,39.5466548 C30.9701979,40.7116684 30.2499618,41.7288731 29.3833392,42.4562792 L37.1629199,44.3486989 C38.4599728,44.6385266 39.1802377,45.9484104 38.8904031,47.2583233 L37.3035876,53.2253082 C38.1673292,52.9354805 39.0310708,52.9354805 39.8976935,53.2253082 C43.0657065,53.9527143 44.7932617,57.2999462 43.6424946,60.3544699 L43.64212,60.3545862 Z" id="Fill-1" fill="#FFC94C"></path>
                <path d="M53.2916079,43.9688499 C50.6908635,44.2563836 48.0930076,42.5255524 47.5147435,39.9264621 C47.3708851,39.0610609 47.3708851,38.3394122 47.5147435,37.474011 L42.603831,38.9173085 C41.3034588,39.2048422 40.0030866,38.6297748 39.7153988,37.3302585 L37.6929185,30.1137708 C38.8494468,30.2575377 40.1469306,30.1137708 41.3034588,29.5358889 C43.1820951,28.5267353 44.191891,26.2151499 43.9042032,24.0502036 C43.3259535,20.8761037 40.149819,18.9986622 37.2613868,19.8640634 C36.3954348,20.1515972 35.6733267,20.4419453 35.0950626,21.0198561 L33.0725824,13.8033684 C32.7848656,12.5038233 33.3602991,11.2042782 34.6606424,10.9167733 L40.149819,9.32972334 C39.5715693,8.75184143 38.9932907,8.03017823 38.7056029,7.30852946 C37.5490746,4.56568681 39.1399942,1.10119539 42.0284553,0.235794187 C44.9168875,-0.629607019 47.9491637,0.957442957 48.6712717,3.84403804 C48.9589885,4.85319168 48.9589885,6.00898435 48.6712717,6.87438556 L54.3042923,5.28733558 C55.6046644,4.99980185 56.9050366,5.57486932 57.1927245,6.87438556 L59.3590487,14.6689139 C60.2250006,13.3693688 61.8130607,12.5039676 63.5478531,12.5039676 C65.4264894,12.5039676 67.3022373,13.5131213 68.3149216,15.2468103 C70.0468256,18.4209102 68.3149216,22.0291541 65.1388015,22.8977305 C63.9822733,23.1852643 62.8286334,23.1852643 61.6721052,22.7539637 L63.8384293,30.548492 C64.1261461,31.8480371 63.5507126,33.1475823 62.2503693,33.4350871 L56.3296609,35.1658895 C56.9079106,35.7437714 57.3394568,36.4654346 57.6300331,37.3308358 C58.6370128,40.2174309 56.6146048,43.5381699 53.2917523,43.9694272 L53.2916079,43.9688499 Z" id="Fill-2" fill="url(#linearGradient-1)"></path>
            </g>
            <ellipse id="Oval-Copy-9" fill="#F3F3F3" cx="36.5" cy="110" rx="32.5" ry="4"></ellipse>
        </g>
    </g>
</svg>