<?xml version="1.0" encoding="UTF-8"?>
<svg width="67px" height="116px" viewBox="0 0 67 116" version="1.1" xmlns="http://www.w3.org/2000/svg" xmlns:xlink="http://www.w3.org/1999/xlink">
    <!-- Generator: Sketch 52.4 (67378) - http://www.bohemiancoding.com/sketch -->
    <title>Group 15</title>
    <desc>Created with Sketch.</desc>
    <defs>
        <linearGradient x1="50%" y1="0%" x2="50%" y2="100%" id="linearGradient-1">
            <stop stop-color="#0073FF" offset="0%"></stop>
            <stop stop-color="#006DFF" offset="98.2523483%"></stop>
        </linearGradient>
    </defs>
    <g id="Page-1" stroke="none" stroke-width="1" fill="none" fill-rule="evenodd">
        <g id="Group-15" fill-rule="nonzero">
            <path d="M63.4609983,28.4391165 C63.4609983,28.4391165 66.7911212,26.5468407 66.7911212,23.44144 C66.7911212,20.4028325 63.4609983,18.4437636 63.4609983,18.4437636 C62.4625254,17.9039497 61.6643622,16.4847689 61.6643622,15.3354653 L61.6643622,14.1861616 C61.6643622,13.036858 62.4625254,11.6206045 63.4609983,11.0778634 C63.4609983,11.0778634 66.7911212,9.18558759 66.7911212,6.08018689 C66.7911212,2.70196682 64.1276234,0 60.7975005,0 C57.802155,0 55.8709781,3.37822007 55.8709781,3.37822007 C55.3388499,4.391114 53.9398745,5.20080505 52.806934,5.20080505 L51.6739936,5.20080505 C50.5410531,5.20080505 49.2107324,4.391114 48.6099494,3.37822007 C48.6099494,3.37822007 46.7446148,0 43.6834271,0 C40.6880815,0 38.7569047,3.37822007 38.7569047,3.37822007 C38.2247764,4.391114 36.825801,5.20080505 35.6928605,5.20080505 L31.0982592,5.20080505 C29.9653187,5.20080505 28.634998,4.391114 28.0342151,3.37822007 C28.0342151,3.37822007 26.1688804,0 23.1076927,0 C20.1123471,0 18.1811703,3.37822007 18.1811703,3.37822007 C17.649042,4.391114 16.2500667,5.20080505 15.1171262,5.20080505 L13.9841857,5.20080505 C12.8512452,5.20080505 11.5209245,4.391114 10.9201416,3.37822007 C10.9201416,3.37822007 9.05480696,0 5.99361919,0 C2.66349849,0 0,2.70196682 0,6.08018689 C0,9.11879439 3.3301229,11.0778634 3.3301229,11.0778634 C4.53454359,11.6873308 5.33563629,13.0397556 5.33563629,14.1861616 L5.33563629,15.3354653 C5.33563629,16.4847689 4.53747316,17.8343035 3.5390017,18.4437636 C3.5390017,18.4437636 0.208878808,20.3360393 0.208878808,23.44144 C0.208878808,26.4800475 3.5390017,28.4391165 3.5390017,28.4391165 C4.53747316,28.9789303 5.33563629,30.3981112 5.33563629,31.5474148 L5.33563629,34.4525845 C5.33563629,35.6018881 4.53747316,36.9514227 3.5390017,37.5608828 C3.5390017,37.5608828 0.208878808,39.4531585 0.208878808,42.5585592 C0.208878808,45.5971667 3.5390017,47.5562357 3.5390017,47.5562357 C4.53747316,48.0960495 5.33563629,49.5152304 5.33563629,50.664534 L5.33563629,51.8138376 C5.33563629,52.9631412 4.53747316,54.3126758 3.5390017,54.9221359 C3.5390017,54.9221359 0.208878808,56.8144117 0.208878808,59.9198124 C0.208878808,63.2980324 2.87237656,66 6.20249799,66 C9.19784353,66 11.1290204,62.6217792 11.1290204,62.6217792 C11.6611487,61.6088853 13.060124,60.7991942 14.1930645,60.7991942 L15.326005,60.7991942 C16.4589455,60.7991942 17.8550352,61.6088853 18.3900491,62.6217792 C18.3900491,62.6217792 20.2553837,66 23.3165715,66 C26.311917,66 28.2430939,62.6217792 28.2430939,62.6217792 C28.7752222,61.6088853 30.1741975,60.7991942 31.307138,60.7991942 L35.9017394,60.7991942 C37.0346798,60.7991942 38.3650006,61.6088853 38.9657835,62.6217792 C38.9657835,62.6217792 40.8311181,66 43.8923059,66 C46.8876514,66 48.8188283,62.6217792 48.8188283,62.6217792 C49.3509565,61.6088853 50.7499319,60.7991942 51.8828724,60.7991942 L53.0158128,60.7991942 C54.1487533,60.7991942 55.479074,61.6088853 56.079857,62.6217792 C56.079857,62.6217792 57.9451916,66 61.0063793,66 C64.3365022,66 67,63.2980332 67,59.9198124 C67,56.8812049 63.6698771,54.9221359 63.6698771,54.9221359 C62.4625986,54.2401098 61.6615059,52.8876553 61.6615059,51.7413235 L61.6615059,50.5920199 C61.6615059,49.4427163 62.459669,48.0931817 63.458142,47.4837216 C63.458142,47.4837216 66.7882649,45.5914459 66.7882649,42.4860452 C66.7882649,39.4474377 63.458142,37.4883687 63.458142,37.4883687 C62.459669,36.9485548 61.6615059,35.529374 61.6615059,34.3800704 L61.6615059,31.4749007 C61.6615059,30.3981855 62.4625986,28.9789601 63.4609983,28.4391908 L63.4609983,28.4391165 Z M55,48 C55,51.339825 52.254388,54 48.8382502,54 L18.1617498,54 C14.745612,54 12,51.339825 12,48 L12,18 C12,14.660175 14.745612,12 18.1617498,12 L48.8382502,12 C52.254388,12 55,14.660175 55,18 L55,48 Z M38.9297288,31.0035316 C31.2148298,31.2061527 29.5219146,40.5002838 29.5219146,40.5002838 C29.5219146,40.5002838 17,33.2928002 17,50 L49.8934765,50 C49.8934765,50 51.8564095,30.7338049 38.9297288,31.0027906 L38.9297288,31.0035316 Z" id="Fill-1" fill="url(#linearGradient-1)"></path>
            <ellipse id="Oval-Copy-10" fill="#F3F3F3" cx="33.5" cy="112" rx="32.5" ry="4"></ellipse>
            <path d="M22,29 C25.3336673,29 28,26.3336673 28,23 C28,19.6663327 25.3336673,17 22,17 C18.6663327,17 16,19.6663327 16,23 C16.068735,26.3336673 18.7351044,29 22,29 Z" id="Path" fill="#FFC94C"></path>
        </g>
    </g>
</svg>