<?xml version="1.0" encoding="UTF-8"?>
<svg width="699px" height="660px" viewBox="0 0 699 660" version="1.1" xmlns="http://www.w3.org/2000/svg" xmlns:xlink="http://www.w3.org/1999/xlink">
    <!-- Generator: Sketch 52.4 (67378) - http://www.bohemiancoding.com/sketch -->
    <title>Group 5</title>
    <desc>Created with Sketch.</desc>
    <g id="Page-1" stroke="none" stroke-width="1" fill="none" fill-rule="evenodd">
        <g id="Group-5" transform="translate(-22.000000, 0.000000)">
            <ellipse id="Oval" fill="#1E486F" fill-rule="nonzero" cx="372.5" cy="579.5" rx="86.5" ry="9.5"></ellipse>
            <path d="M423.278276,526.78125 C540.207496,526.78125 720.296875,459.828903 720.296875,275.108442 C720.296875,90.3879817 530.109662,1.13686838e-13 413.180442,1.13686838e-13 C296.251222,1.13686838e-13 138,51.6197042 138,273.419596 C138,495.219488 306.349056,526.78125 423.278276,526.78125 Z" id="Oval" fill="#0B7CE4" fill-rule="nonzero"></path>
            <path d="M307.126374,654.154227 C371.711148,654.154227 443.378053,634.449617 497.818028,598.093181 C563.609643,554.155825 601.144973,489.452197 601.144973,405.48142 C601.144973,321.412293 561.24223,251.480356 492.658573,201.074369 C434.54214,158.361333 359.152911,133.372977 297.02854,133.372977 C229.067026,133.372977 165.455262,150.262585 117.389739,186.307908 C57.9092223,230.913568 24.8480978,302.400444 24.8480978,403.792574 C24.8480978,504.552973 59.4641985,571.681913 122.234435,611.107911 C170.989863,641.731205 233.304537,654.154227 307.126374,654.154227 Z" id="Oval-Copy-5" stroke-opacity="0.163552989" stroke="#FFFFFF" stroke-width="6" fill-rule="nonzero" transform="translate(312.996535, 393.763602) rotate(-175.000000) translate(-312.996535, -393.763602) "></path>
            <path d="M369.862476,179 C401.238606,179 430.261527,186.312496 456.931238,200.9375 C483.600949,215.562504 504.779837,235.28013 520.467902,260.090402 C536.155967,284.900674 544,311.930808 544,341.180804 C544,376.698657 532.756891,408.560268 510.27066,436.765625 C489.353235,463.926343 461.637657,483.252228 427.123914,494.743304 C392.087231,506.234379 356.266156,507.017861 319.660667,497.09375 L260.830422,530 L260.830422,468.104911 C229.977231,444.600446 210.105674,415.872764 201.215774,381.921875 C192.848802,350.582589 194.548346,319.112719 206.314395,287.512277 C218.080444,255.911834 238.082727,230.187496 266.321245,210.339286 C296.128569,189.446425 330.642312,179 369.862476,179 Z M389.17301,396.430769 L485,296 L397.813149,343.861538 L353.041522,296.784615 L258,398 L344.401384,349.353846 L389.17301,396.430769 Z" id="" fill="#FFFFFF"></path>
        </g>
    </g>
</svg>