<?xml version="1.0" encoding="UTF-8"?>
<svg width="1280px" height="734px" viewBox="0 0 1280 734" version="1.1" xmlns="http://www.w3.org/2000/svg" xmlns:xlink="http://www.w3.org/1999/xlink">
    <!-- Generator: Sketch 48.2 (47327) - http://www.bohemiancoding.com/sketch -->
    <title>Group 11</title>
    <desc>Created with Sketch.</desc>
    <defs></defs>
    <g id="Desktop-Copy" stroke="none" stroke-width="1" fill="none" fill-rule="evenodd" transform="translate(0.000000, -100.000000)">
        <g id="Group-11" transform="translate(-53.000000, 100.000000)">
            <path d="M654.787575,152.563133 C763.982861,-39.7184016 1101.33378,-45.1405476 1269.50167,107.554257 C1279.36948,116.514965 1405.3906,234.537329 1383.43701,390.841878 C1355.97346,586.362191 1108.8343,757.319265 885.424205,685.125738 C660.24001,612.360019 557.273926,324.271724 654.787575,152.563133" id="Fill-1" fill="#FFE74F"></path>
            <path d="M0.00602774838,482.857458 C-1.29334069,331.591977 207.742556,216.618686 373.036515,198.942469 C485.438381,186.921654 691.136201,207.753319 737.185818,336.463386 C782.345368,462.686477 644.585027,610.553783 537.34815,673.613409 C525.965683,680.305917 319.949518,797.067858 142.112756,686.921843 C126.615189,677.323104 1.00784081,599.52724 0.00602774838,482.857458" id="Fill-1" fill="#EEF4F3"></path>
        </g>
    </g>
</svg>