<?xml version="1.0" encoding="UTF-8"?>
<svg width="103px" height="22px" viewBox="0 0 103 22" version="1.1" xmlns="http://www.w3.org/2000/svg" xmlns:xlink="http://www.w3.org/1999/xlink">
    <!-- Generator: Sketch 52.4 (67378) - http://www.bohemiancoding.com/sketch -->
    <title>Group 20</title>
    <desc>Created with Sketch.</desc>
    <defs>
        <polygon id="path-1" points="0 0 37 0 37 21 0 21"></polygon>
    </defs>
    <g id="Page-1" stroke="none" stroke-width="1" fill="none" fill-rule="evenodd">
        <g id="Group-20">
            <text id="yubots" font-family="Brown-Bold, Brown" font-size="18" font-weight="bold" fill="#2C2C2E">
                <tspan x="0" y="17">yubots</tspan>
            </text>
            <g id="Group-3" transform="translate(66.000000, 0.000000)">
                <mask id="mask-2" fill="white">
                    <use xlink:href="#path-1"></use>
                </mask>
                <g id="Clip-2"></g>
                <path d="M25.6116056,10.1971154 C25.6116056,14.049101 22.4213833,17.1829471 18.5,17.1829471 C14.5787194,17.1829471 11.3884972,14.049101 11.3884972,10.1971154 L11.3884972,8.76416827 L14.30605,8.76416827 L14.30605,10.1971154 C14.30605,12.468851 16.1875,14.3170529 18.5,14.3170529 C20.8126028,14.3170529 22.6940528,12.468851 22.6940528,10.1971154 L22.6940528,8.76416827 L25.6116056,8.76416827 L25.6116056,10.1971154 Z M26.3111111,0 L10.6888889,0 C4.78564167,0 0,4.70097115 0,10.5 L0,21 L26.3111111,21 C32.2144611,21 37,16.2990288 37,10.5 C37,4.70097115 32.2144611,0 26.3111111,0 Z" id="Fill-1" fill="#FFC94C" fill-rule="nonzero" mask="url(#mask-2)"></path>
            </g>
        </g>
    </g>
</svg>