<?xml version="1.0" encoding="UTF-8"?>
<svg width="97px" height="23px" viewBox="0 0 97 23" version="1.1" xmlns="http://www.w3.org/2000/svg" xmlns:xlink="http://www.w3.org/1999/xlink">
    <!-- Generator: Sketch 48.2 (47327) - http://www.bohemiancoding.com/sketch -->
    <title>Group 7</title>
    <desc>Created with Sketch.</desc>
    <defs></defs>
    <g id="Desktop-Copy" stroke="none" stroke-width="1" fill="none" fill-rule="evenodd" transform="translate(-77.000000, -36.000000)">
        <g id="Group-7" transform="translate(77.000000, 36.000000)">
            <path d="M4.58,20.8 L1.86,20.8 L4.54,15.02 L0.2,6.3 L3.06,6.3 L5.9,12.12 L8.52,6.3 L11.26,6.3 L4.58,20.8 Z M19.56,6.3 L22.16,6.3 L22.16,16 L19.66,16 L19.66,15.22 C18.9,15.9 17.98,16.2 17.04,16.2 C15.7,16.2 14.5,15.58 13.74,14.64 C13.12,13.88 12.76,12.88 12.76,11.44 L12.76,6.3 L15.36,6.3 L15.36,11.54 C15.36,12.42 15.54,12.86 15.84,13.2 C16.24,13.64 16.8,13.8 17.3,13.8 C18.4,13.8 19.2,13.06 19.56,12.6 L19.56,6.3 Z M27.76,9.7 L27.76,12.6 C28.26,13.32 29.12,13.8 30.1,13.8 C31.56,13.8 32.66,12.68 32.66,11.16 C32.66,9.76 31.68,8.5 30.16,8.5 C29.16,8.5 28.3,8.98 27.76,9.7 Z M27.66,16 L25.16,16 L25.16,1.8 L27.76,1.8 L27.76,7 C28.52,6.4 29.44,6.1 30.5,6.1 C33.14,6.1 35.26,8.3 35.26,11.16 C35.26,12.48 34.78,13.68 34.02,14.56 C33.16,15.56 31.8,16.2 30.36,16.2 C29.38,16.2 28.46,15.9 27.66,15.22 L27.66,16 Z M36.66,11.16 C36.66,8.36 38.88,6.1 41.82,6.1 C44.76,6.1 46.98,8.36 46.98,11.16 C46.98,13.96 44.76,16.2 41.82,16.2 C38.88,16.2 36.66,13.96 36.66,11.16 Z M39.26,11.16 C39.26,12.62 40.3,13.8 41.82,13.8 C43.34,13.8 44.38,12.62 44.38,11.16 C44.38,9.7 43.34,8.5 41.82,8.5 C40.3,8.5 39.26,9.7 39.26,11.16 Z M56.08,13.8 L56.48,16 C56.14,16.12 55.36,16.2 54.86,16.2 C53.3,16.2 52.16,15.68 51.5,14.8 C51,14.14 50.78,13.28 50.78,11.9 L50.78,8.5 L48.08,8.5 L48.08,6.3 L50.78,6.3 L50.78,3.6 L53.38,3.6 L53.38,6.3 L56.58,6.3 L56.58,8.5 L53.38,8.5 L53.38,12.2 C53.38,12.8 53.48,13.16 53.7,13.42 C53.96,13.72 54.38,13.9 55.02,13.9 C55.4,13.9 55.9,13.84 56.08,13.8 Z M58.12,14.9 L59.38,13.04 C60.04,13.64 61.06,14 62.04,14 C62.74,14 63.28,13.66 63.28,13.18 C63.28,11.72 58.58,12.24 58.58,9.12 C58.58,7.26 60.38,6.1 62.3,6.1 C63.56,6.1 64.94,6.58 65.58,7.08 L64.36,8.96 C63.86,8.6 63.2,8.3 62.5,8.3 C61.78,8.3 61.18,8.58 61.18,9.08 C61.18,10.34 65.88,9.84 65.88,13.2 C65.88,15.06 64.06,16.2 62.02,16.2 C60.68,16.2 59.26,15.74 58.12,14.9 Z" id="yubots" fill="#041129"></path>
            <g id="Group-3" transform="translate(74.000000, 0.000000)">
                <path d="M11.5,0 L11.5,0 C17.8512746,-1.16671022e-15 23,5.14872538 23,11.5 L23,11.5 C23,17.8512746 17.8512746,23 11.5,23 L0,23 L0,11.5 C-7.77806814e-16,5.14872538 5.14872538,1.16671022e-15 11.5,0 Z" id="Rectangle" fill="#FFD54F"></path>
                <circle id="Oval" fill="#041129" cx="11.5" cy="9.5" r="3.5"></circle>
                <path d="M15.1144878,14.3227699 L14.4716406,14.9688591 L14.4705691,14.9677849 C13.6688645,15.7319044 12.6031579,16.1579782 11.4956325,16.1579782 C10.3881098,16.1579782 9.32234828,15.7319044 8.52069868,14.9677849 L7.87785142,14.3216956 L7.87677991,14.3227699 C7.44749158,13.89241 6.75203074,13.89241 6.32276988,14.3227699 C5.89241004,14.7520582 5.89241004,15.4475191 6.32276988,15.8767799 L6.96885913,16.5196272 L6.96778487,16.5207014 C8.16872071,17.7248518 9.80012628,18.4020696 11.5010697,18.4020696 C13.202123,18.4020696 14.8334461,17.7248792 16.0343545,16.5207014 L16.6804437,15.8778542 L16.6804437,15.8767799 C17.1097321,15.4474916 17.1097321,14.7520307 16.6804437,14.3227699 C16.2511554,13.89241 15.5546231,13.89241 15.1253347,14.3227699 L15.1144878,14.3227699 Z" id="Fill-4" fill="#041129"></path>
            </g>
        </g>
    </g>
</svg>