<?xml version="1.0" encoding="UTF-8"?>
<svg width="99px" height="90px" viewBox="0 0 99 90" version="1.1" xmlns="http://www.w3.org/2000/svg" xmlns:xlink="http://www.w3.org/1999/xlink">
    <!-- Generator: Sketch 52.4 (67378) - http://www.bohemiancoding.com/sketch -->
    <title>Group 17</title>
    <desc>Created with Sketch.</desc>
    <defs>
        <linearGradient x1="50%" y1="0%" x2="50%" y2="100%" id="linearGradient-1">
            <stop stop-color="#0073FF" offset="0%"></stop>
            <stop stop-color="#006DFF" offset="98.2523483%"></stop>
        </linearGradient>
    </defs>
    <g id="Page-1" stroke="none" stroke-width="1" fill="none" fill-rule="evenodd">
        <g id="Group-17" fill-rule="nonzero">
            <path d="M98.5289737,4.80802531 L98.5289737,64.1910253 C98.5250637,68.1051253 97.1500737,71.8980253 94.6461737,74.9100253 C92.1461737,77.9217253 88.6656737,79.9608253 84.8180737,80.6795253 L27.4270737,89.9998253 C25.9622737,89.9998253 24.5715737,89.3357653 23.6458737,88.1990253 C22.9271237,87.2888653 22.5442737,86.1599253 22.5677737,84.9998253 L22.5677737,73.8708253 C22.5716837,73.6442653 22.6693337,73.4294153 22.8451137,73.2848853 C23.0169937,73.1403553 23.2435537,73.0739453 23.4662037,73.1091053 C26.0873037,73.5036353 28.7553037,73.5036353 31.3764037,73.1091053 C31.5990637,73.0739453 31.8295237,73.1403553 32.0014037,73.2848853 C32.1732837,73.4294153 32.2748437,73.6442653 32.2787437,73.8708253 L32.2787437,77.3903253 L67.7087437,59.8393253 C69.2126437,59.0932353 70.9978437,59.1830753 72.4275437,60.0737053 C73.8533437,60.9643253 74.7166437,62.5268053 74.7087437,64.2104053 C74.7165637,66.1870053 75.5524937,68.0737053 77.0173437,69.4018053 C78.4821437,70.7338053 80.4353437,71.3901053 82.4079437,71.2104053 C86.0954437,70.7729053 88.8532437,67.6206053 88.7985437,63.9096053 L88.7985437,9.67160531 L32.2675437,9.67160531 L32.2675437,19.9996053 C32.2675437,20.2261653 32.1659837,20.4449153 31.9941037,20.5933553 C31.8222337,20.7378853 31.5917637,20.8042953 31.3691037,20.7691353 C28.7441037,20.3746053 26.0800037,20.3746053 23.4589037,20.7691353 C23.2323437,20.8042953 23.0018737,20.7378853 22.8299937,20.5933553 C22.6581137,20.4449153 22.5565537,20.2261653 22.5565537,19.9996053 L22.5565537,4.80860531 C22.5839037,2.14060531 24.7596537,-0.00389468902 27.4276537,5.31098106e-06 L93.6776537,5.31098106e-06 C96.3378537,0.00391531098 98.5018537,2.14840531 98.5292537,4.80860531 L98.5289737,4.80802531 Z M77.5569737,18.3780253 L43.5569737,18.3780253 C41.5139737,18.3780253 39.8577737,20.0342253 39.8577737,22.0772253 C39.8577737,24.1241253 41.5139737,25.7803253 43.5569737,25.7803253 L77.5569737,25.7803253 C79.5999737,25.7803253 81.2561737,24.1241253 81.2561737,22.0772253 C81.2561737,20.0342253 79.5999737,18.3780253 77.5569737,18.3780253 Z M77.5569737,32.8270253 L54.1659737,32.8270253 C52.1229737,32.8270253 50.4667737,34.4872253 50.4667737,36.5301253 C50.4667737,38.5730253 52.1229737,40.2293253 54.1659737,40.2293253 L77.5569737,40.2293253 C79.5999737,40.2293253 81.2561737,38.5731253 81.2561737,36.5301253 C81.2561737,34.4871253 79.5999737,32.8270253 77.5569737,32.8270253 Z M77.5569737,47.2370253 L56.0489737,47.2370253 C54.0059737,47.2370253 52.3458737,48.8972253 52.3458737,50.9401253 C52.3458737,52.9831253 54.0060737,54.6393253 56.0489737,54.6393253 L77.5569737,54.6393253 C79.5999737,54.6393253 81.2561737,52.9831253 81.2561737,50.9401253 C81.2561737,48.8971253 79.5999737,47.2370253 77.5569737,47.2370253 Z" id="Fill-1" fill="url(#linearGradient-1)"></path>
            <path d="M1.4589747,72.8980253 C-0.4863249,70.9488253 -0.4863249,67.7925253 1.4589747,65.8394253 L10.5800737,56.7183253 L10.5761737,56.7183253 C8.1347697,52.5074253 7.3573697,47.5308253 8.4042697,42.7733253 C9.4511737,38.0194253 12.2440737,33.8280253 16.2284737,31.0313253 C20.2167737,28.2305253 25.1034737,27.0274253 29.9354737,27.6602253 C34.7635737,28.2930353 39.1776737,30.7110253 42.3104737,34.4414253 C45.4432737,38.1680253 47.0643737,42.9375253 46.8534737,47.8004253 C46.6386337,52.6676253 44.6112737,57.2770253 41.1659737,60.7184253 C38.1268737,63.7457253 34.1776737,65.6832253 29.9239737,66.2340253 C25.6739737,66.7848053 21.3575737,65.9176153 17.6469737,63.7692253 L8.5297697,72.8981253 C6.5766697,74.8434253 3.4203697,74.8434253 1.4672697,72.8981253 L1.4589747,72.8980253 Z M20.7089737,53.6480253 C23.4198737,56.3589253 27.4980737,57.1714253 31.0369737,55.7027253 C34.5799737,54.2339253 36.8885737,50.7769253 36.8885737,46.9449253 C36.8885737,43.1090253 34.5799737,39.6558253 31.0369737,38.1871253 C27.4978737,36.7183253 23.4197737,37.5308753 20.7089737,40.2379253 C17.0097737,43.9449253 17.0097737,49.9449253 20.7089737,53.6479253 L20.7089737,53.6480253 Z" id="Combined-Shape" fill="#FFC94C"></path>
        </g>
    </g>
</svg>