<?xml version="1.0" encoding="UTF-8"?>
<svg width="90px" height="90px" viewBox="0 0 90 90" version="1.1" xmlns="http://www.w3.org/2000/svg" xmlns:xlink="http://www.w3.org/1999/xlink">
    <!-- Generator: Sketch 52.4 (67378) - http://www.bohemiancoding.com/sketch -->
    <title>Group 16</title>
    <desc>Created with Sketch.</desc>
    <defs>
        <linearGradient x1="50%" y1="0%" x2="50%" y2="100%" id="linearGradient-1">
            <stop stop-color="#0073FF" offset="0%"></stop>
            <stop stop-color="#006DFF" offset="98.2523483%"></stop>
        </linearGradient>
    </defs>
    <g id="Page-1" stroke="none" stroke-width="1" fill="none" fill-rule="evenodd">
        <g id="Group-16" fill-rule="nonzero">
            <path d="M82.50992,63.08792 C87.84972,68.42382 87.84972,77.07592 82.50992,82.41192 C77.17402,87.747817 68.52192,87.747817 63.18592,82.41192 L67.66252,77.93532 L78.04152,67.56032 L82.50992,63.08792 Z M72.74042,62.27542 L62.36942,72.65042 L57.89282,77.12312 L47.23682,66.46712 L47.08838,66.61165 L23.39338,42.91265 L23.53791,42.76812 L15.80741,35.03372 L2.131413,2.04172 L35.13141,15.71372 L42.86191,23.44422 L42.91269,23.38953 L66.61169,47.08853 L66.56091,47.13931 L77.21691,57.79931 L72.74042,62.27542 Z M21.89642,32.17342 C22.78314,31.80623 23.70112,31.30623 24.36522,30.63822 C26.12692,28.88042 25.64642,25.55622 24.9121,24.82182 C25.64648,25.5562 28.9707,26.03272 30.7285,24.27885 C31.39647,23.61479 31.9004,22.68505 32.2637,21.80225 C32.86917,20.35695 33.10745,19.00925 33.10745,19.00925 L14.14645,11.15375 L11.23625,14.06395 L19.10345,33.01695 C19.10345,33.01695 20.45115,32.77476 21.89645,32.1732 L21.89642,32.17342 Z" id="Fill-1" fill="url(#linearGradient-1)"></path>
            <path d="M89.27142,20.90042 L69.10342,0.73242 C68.13076,-0.24414 66.54872,-0.24414 65.57612,0.73242 L46.18512,20.12342 L69.88012,43.82242 L74.20822,39.49432 L66.85272,32.13882 C65.95038,31.23648 65.95038,29.77552 66.85272,28.86932 C67.75506,27.97088 69.21602,27.97088 70.12222,28.86932 L77.47772,36.22482 L81.80582,31.90062 L74.45032,24.54512 C73.54798,23.64278 73.54798,22.17792 74.45032,21.27562 C75.35266,20.37328 76.81752,20.37328 77.71982,21.27562 L85.07142,28.63112 L89.27062,24.43582 C90.24328,23.45535 90.24328,21.87332 89.27062,20.90062 L89.27142,20.90042 Z" id="Path" fill="#FFC94C"></path>
            <path d="M0.73242,65.57242 C-0.24414,66.54898 -0.24414,68.13102 0.73242,69.10362 L20.90042,89.267619 C21.87698,90.244179 23.45512,90.244179 24.43162,89.267619 L28.63082,85.072319 L21.27532,77.72072 C20.37298,76.81838 20.37298,75.35352 21.27532,74.45122 C22.17766,73.54888 23.63862,73.54888 24.54482,74.45122 L31.89642,81.81062 L36.22452,77.47472 L28.86902,70.12312 C27.96668,69.22078 27.96668,67.75982 28.86902,66.85362 C29.77136,65.95128 31.23622,65.95128 32.13852,66.85362 L39.49402,74.21302 L43.81822,69.88492 L20.12722,46.17792 L0.73242,65.57242 Z" id="Path" fill="#FFC94C"></path>
        </g>
    </g>
</svg>