<?xml version="1.0" encoding="UTF-8"?>
<svg width="98px" height="85px" viewBox="0 0 98 85" version="1.1" xmlns="http://www.w3.org/2000/svg" xmlns:xlink="http://www.w3.org/1999/xlink">
    <!-- Generator: Sketch 52.4 (67378) - http://www.bohemiancoding.com/sketch -->
    <title>Group 18</title>
    <desc>Created with Sketch.</desc>
    <defs>
        <linearGradient x1="50%" y1="0%" x2="50%" y2="100%" id="linearGradient-1">
            <stop stop-color="#0073FF" offset="0%"></stop>
            <stop stop-color="#006DFF" offset="98.2523483%"></stop>
        </linearGradient>
    </defs>
    <g id="Page-1" stroke="none" stroke-width="1" fill="none" fill-rule="evenodd">
        <g id="Group-18" fill-rule="nonzero">
            <path d="M8.780599,82.364 L72.569601,82.364 L68.448501,72.6531 L9.710501,72.6531 L9.710501,23.2621 L80.999501,23.2621 L80.999501,53.2621 L90.710401,57.3832 L90.710401,8.7812 C90.702591,3.9335 86.776801,0.0078 81.929201,7.10542736e-15 L8.781201,7.10542736e-15 C3.9335,0.00781 0.003901,3.9336 -7.10542736e-15,8.7812 L-7.10542736e-15,73.5822 C0.003906,78.4299 3.9336,82.3556 8.781201,82.3634 L8.780599,82.364 Z M34.909601,8.712 C36.390101,8.712 37.726001,9.60263 38.296301,10.9698 C38.866601,12.33697 38.558021,13.9112 37.518961,14.962 C36.475961,16.0167 34.905661,16.3409 33.530661,15.78622 C32.159561,15.22763 31.257261,13.90342 31.237661,12.42292 C31.229851,11.44245 31.608751,10.49712 32.300161,9.80182 C32.987661,9.10651 33.929061,8.71202 34.909561,8.71202 L34.909601,8.712 Z M24.011601,8.712 C25.492101,8.712 26.828001,9.60263 27.398301,10.9698 C27.968611,12.337 27.660021,13.9112 26.617051,14.962 C25.577951,16.0167 24.003751,16.3409 22.632651,15.78622 C21.261551,15.22763 20.355351,13.90342 20.339651,12.42292 C20.327931,11.44245 20.710741,10.50102 21.398251,9.80572 C22.085751,9.11041 23.019351,8.71592 23.999851,8.71192 L24.011601,8.712 Z M13.113601,8.712 L13.109691,8.712 C14.590191,8.712 15.926091,9.60263 16.496391,10.9698 C17.066701,12.337 16.762011,13.9112 15.719051,14.962 C14.676051,16.0167 13.105751,16.3409 11.734651,15.78622 C10.359651,15.22763 9.457351,13.90342 9.441651,12.42292 C9.429931,11.44245 9.812741,10.49712 10.500251,9.80182 C11.191661,9.10651 12.129151,8.71202 13.109651,8.71202 L13.113601,8.712 Z M96.922601,78.571 C98.356201,80.0085 98.356201,82.3366 96.922601,83.774102 C95.485101,85.207702 93.157001,85.207702 91.719501,83.774102 L87.078901,79.1218 L84.309401,81.8913 C83.563311,82.645213 82.489101,82.977202 81.446101,82.778023 C80.399201,82.578803 79.528101,81.87177 79.110201,80.89132 L71.231301,62.30132 C70.809421,61.32085 70.910991,60.19192 71.500831,59.30132 C72.352391,57.96932 74.055531,57.45752 75.500831,58.10212 L94.000831,65.96152 C94.977391,66.37949 95.684431,67.25452 95.887531,68.29742 C96.086751,69.34042 95.754721,70.41462 95.000811,71.16072 L92.282011,73.92242 L96.922601,78.571 Z" id="Fill-1" fill="url(#linearGradient-1)"></path>
            <path d="M64.421601,52.5317 L60.898201,53.15282 C60.199001,55.26222 59.077901,57.20752 57.601301,58.87162 L57.601301,58.87553 L58.820101,62.20363 C59.304501,63.56303 58.753701,65.07477 57.511501,65.80133 L54.659901,67.44193 C53.402101,68.16066 51.812291,67.87946 50.878701,66.77396 L48.609201,64.06306 C46.429501,64.50447 44.179501,64.50447 41.999801,64.06306 L39.781001,66.75056 C38.847501,67.85994 37.257601,68.14119 35.999801,67.42244 L33.089601,65.79354 C31.843501,65.06304 31.292721,63.55134 31.781001,62.19194 L32.999801,58.86384 C31.546701,57.21144 30.437321,55.28954 29.738101,53.20364 L26.249801,52.59426 C24.824001,52.33646 23.784901,51.09816 23.781001,49.65286 L23.781001,46.36376 C23.785001,44.91456 24.824001,43.67627 26.249801,43.42236 L29.699001,42.77392 C30.402101,40.66062 31.523201,38.71532 32.999801,37.05122 L31.839601,33.66062 C31.355201,32.30512 31.902101,30.78948 33.148201,30.06292 L35.999801,28.42232 C37.253701,27.7153 38.827911,27.9965 39.761501,29.0942 L39.761501,29.09029 L42.031001,31.80119 C44.210701,31.35978 46.460701,31.35978 48.640401,31.80119 L48.640401,31.8051 L50.909901,29.0942 C51.843401,27.98482 53.433301,27.70357 54.691101,28.42232 L57.538801,30.16062 C58.784891,30.89112 59.335681,32.40282 58.851301,33.76222 L58.847391,33.76612 L57.628591,37.09422 C59.105191,38.75442 60.230171,40.70362 60.929391,42.81302 L60.933301,42.81302 L64.421601,43.4224 C65.827901,43.6763 66.859151,44.8833 66.890401,46.313 L66.890401,49.5942 C66.882501,51.0395 65.843501,52.27779 64.421601,52.5317 Z M45.339601,54.184 L45.339501,54.1841 C48.773101,54.1841 51.558301,51.3989 51.558301,47.9614 C51.558301,45.4458 50.042701,43.18014 47.718501,42.2153 C45.394301,41.2544 42.722401,41.7857 40.941201,43.563 C39.163811,45.3442 38.628661,48.02 39.593501,50.3442 C40.554401,52.6684 42.824001,54.184 45.339601,54.184 Z" id="Combined-Shape" fill="#FFC94C"></path>
        </g>
    </g>
</svg>