<?xml version="1.0" encoding="UTF-8"?>
<svg width="77px" height="78px" viewBox="0 0 77 78" version="1.1" xmlns="http://www.w3.org/2000/svg" xmlns:xlink="http://www.w3.org/1999/xlink">
    <!-- Generator: Sketch 52.4 (67378) - http://www.bohemiancoding.com/sketch -->
    <title>Group 19</title>
    <desc>Created with Sketch.</desc>
    <defs>
        <linearGradient x1="50%" y1="0%" x2="50%" y2="100%" id="linearGradient-1">
            <stop stop-color="#0073FF" offset="0%"></stop>
            <stop stop-color="#006DFF" offset="98.2523483%"></stop>
        </linearGradient>
    </defs>
    <g id="Page-1" stroke="none" stroke-width="1" fill="none" fill-rule="evenodd">
        <g id="Group-19" fill-rule="nonzero">
            <path d="M76.9563342,4.66842353 C77.1493193,3.356361 76.6958067,2.03174247 75.7308892,1.09452068 C74.8528306,0.276061096 73.6434416,-0.114454649 72.4373462,0.0292596234 C47.6361442,2.95648823 33.4327401,13.7464951 25.3149801,24.3655163 L21.5196658,24.1749529 C18.7567949,24.0374927 16.0647353,25.0402776 14.1091941,26.9427922 L8.18147546,32.7003203 C8.03674071,32.8408996 7.97240959,33.043963 8.01100991,33.2376533 C8.05282144,33.4344627 8.1879061,33.596915 8.37767182,33.6750182 L17.8301402,37.4831665 C16.7622912,40.0948155 15.9132158,42.7845997 15.2860429,45.5278068 C15.0641157,46.5150127 15.3728854,47.5458847 16.1094286,48.2644561 L27.3247659,59.123401 C28.0613091,59.8387974 29.122711,60.1386779 30.1390983,59.9231465 C32.9630644,59.3139643 35.7323577,58.4892028 38.4240057,57.4520928 L42.3447216,66.6331715 L42.3415104,66.6331715 C42.421914,66.8174889 42.5891683,66.9486951 42.7917953,66.9893062 C42.9944223,67.0267983 43.2002688,66.9643141 43.3450118,66.8237349 L49.2727304,61.0662068 L49.2759416,61.0662068 C51.2314828,59.1668112 52.2639261,56.5520431 52.1223861,53.868497 L51.9261898,50.1821499 C62.8360509,42.3846309 73.8941214,28.6138126 76.9554696,4.66863146 L76.9563342,4.66842353 Z M46.3888522,37.5361236 C44.816782,38.9654863 42.4521114,39.3924036 40.3971996,38.6202004 C38.3422025,37.8449739 37,36.0219511 37,33.9991525 C37,31.9763538 38.3422025,30.1533311 40.3971996,29.3811279 C42.4521967,28.6059014 44.8168672,29.0359118 46.3888522,30.4652047 C48.533716,32.4153646 48.5370412,35.5737926 46.398845,37.5270534 L46.3888522,37.5361236 Z M49.0520845,26.9493986 L49.0520845,26.9461846 C47.0489192,24.9470832 46.4499566,21.9372357 47.5319643,19.3200784 C48.6140544,16.7061269 51.167952,15 53.9987823,15 C56.8328279,15 59.3834278,16.7061269 60.4688157,19.3200784 C61.5509058,21.937244 60.9486701,24.9470915 58.9454801,26.9461846 C57.6314723,28.2628435 55.8473633,29.0032036 53.9859209,28.9999896 C52.1244785,28.9999896 50.3402871,28.2563744 49.029577,26.9397484 L49.0520845,26.9493986 Z" id="Fill-1" fill="url(#linearGradient-1)"></path>
            <path d="M6.35222564,60.5068641 C4.68422576,59.9385566 2.89656109,59.799632 1.15747336,60.1027314 C0.856842486,60.153248 0.54651277,60.0616877 0.329927455,59.8501485 C0.0422228447,59.5786199 -0.0353595842,59.1555415 0.129504112,58.8019093 C1.93330593,54.8995235 6.89857972,47.0505399 15.7949465,53.3871783 L15.7949465,53.3840261 C15.8886909,53.4692738 15.9436482,53.5860924 15.9436482,53.7092235 C15.9436482,53.8323547 15.8886992,53.9491813 15.7949465,54.0312688 C13.360803,55.89723 11.9836838,58.7861319 12.0871271,61.8076701 C12.1000616,62.1675988 12.3974568,62.4580731 12.7659712,62.4706982 C15.8401388,62.5906771 18.7882711,61.2803659 20.711736,58.9376897 C20.7957816,58.8398169 20.9218582,58.7798274 21.0543897,58.7798274 C21.1869294,58.7798274 21.3129978,58.8398088 21.3970433,58.9376897 C22.6383622,60.3837572 26.0487617,65.0817993 22.2730834,69.6221489 L22.2763192,69.6253011 C20.6147725,71.5638463 18.235578,72.7857817 15.6559519,73.0193704 C11.9740346,73.4140302 5.20487296,74.5474768 2.4152157,77.6574392 C2.18893155,77.9289679 1.83011592,78.0520987 1.48099913,77.9794842 C1.13187406,77.9100246 0.853876561,77.654287 0.760132161,77.3196086 C-0.183766702,74.0517911 -1.66432909,66.7774025 6.35252355,60.5068803 L6.35222564,60.5068641 Z" id="Path" fill="#FFC94C"></path>
        </g>
    </g>
</svg>