<?xml version="1.0" encoding="UTF-8"?>
<svg width="571px" height="790px" viewBox="0 0 571 790" version="1.1" xmlns="http://www.w3.org/2000/svg" xmlns:xlink="http://www.w3.org/1999/xlink">
    <!-- Generator: Sketch 48.2 (47327) - http://www.bohemiancoding.com/sketch -->
    <title>Group 28</title>
    <desc>Created with Sketch.</desc>
    <defs></defs>
    <g id="Desktop-Copy" stroke="none" stroke-width="1" fill="none" fill-rule="evenodd" transform="translate(-709.000000, -1887.000000)">
        <g id="Fill-1-+-Fill-1-Copy-3-Mask" transform="translate(0.000000, 1887.000000)" fill="#FFD54F">
            <g id="Group-28" transform="translate(709.000000, -61.000000)">
                <path d="M26.2973682,107.793895 C104.354936,-28.0631442 345.508133,-31.8941761 465.721898,75.9927511 C472.775842,82.3239642 562.861249,165.712985 547.167866,276.150387 C527.535712,414.295793 350.869835,535.085976 191.166522,484.077445 C30.1950073,432.664629 -43.4096543,229.115064 26.2973682,107.793895" id="Fill-1" opacity="0.637907609"></path>
                <path d="M218.297368,710.793895 C296.354936,574.936856 537.508133,571.105824 657.721898,678.992751 C664.775842,685.323964 754.861249,768.712985 739.167866,879.150387 C719.535712,1017.29579 542.869835,1138.08598 383.166522,1087.07744 C222.195007,1035.66463 148.590346,832.115064 218.297368,710.793895" id="Fill-1-Copy-4" opacity="0.324388587"></path>
            </g>
        </g>
    </g>
</svg>